<svg xmlns="http://www.w3.org/2000/svg" xmlns:xlink="http://www.w3.org/1999/xlink" version="1.1" width="664" height="817.3" viewBox="9.9 9.9 664 817.3"><g><g transform="translate(10,195)"><g><g>
<g stroke="#000000" stroke-dasharray="none" fill="#FFFFFF">
    <path d="M607.3,409.6H30.6C13.8,409.6,0,393.8,0,374.5V35C0,15.8,13.8,0,30.6,0h576.6c16.8,0,30.6,15.8,30.6,35v339.4C638,394,624.2,409.6,607.3,409.6z"/>
</g>
<rect x="28.3" y="14" width="584.9" height="372.3" fill="none"/>
<circle cx="320.5" cy="0.4" r="0.1"/>
<circle cx="510.1" cy="0" r="0.1"/>
<circle cx="638" cy="49.6" r="0.1"/>
<circle cx="638" cy="200.2" r="0.1"/>
<circle cx="638" cy="334.4" r="0.1"/>
<circle cx="509.8" cy="410" r="0.1"/>
<circle cx="320.8" cy="409.1" r="0.1"/>
<circle cx="107.6" cy="409.6" r="0.1"/>
<circle cx="0" cy="334.9" r="0.1"/>
<circle cx="0" cy="204.7" r="0.1"/>
<circle cx="0" cy="87.7" r="0.1"/>
<circle cx="108" cy="0.4" r="0.1"/>
</g></g><rect stroke="none" stroke-width="1" fill="#FFFFFF" x="0" y="0" width="40" height="20" transform="translate(57.9,-61.6)"/><path stroke="#000000" fill="none" d="M108,0.4 C115.5,-27.7 76.1,-13.5 83.6 -41.6"/><text font-family="OpenSansCondensedLight" font-size="14pt" fill="black" transform="translate(57.9,-61.6)" text-anchor="middle"><tspan x="20" y="16.3">102</tspan></text><rect stroke-width="0" fill="none" width="584.9" height="372.3" transform="translate(28.3,14)"/><text font-family="OpenSansCondensedLight" font-size="14pt" fill="black" transform="translate(28.3,14)" text-anchor="middle"><tspan x="292.5" y="16.8">CLOUD INFRASTRUCTURE</tspan></text><path stroke="#000000" fill="none" transform="translate(28.3,14)" d="M 0 0"/></g><g transform="translate(289,246)"><g><g>
<g stroke="#000000" stroke-dasharray="none" fill="#FFFFFF">
    <path d="M107.9,61.2H5.4C2.5,61.2,0,58.8,0,55.9V5.2C0,2.4,2.5,0,5.4,0h102.5c3,0,5.4,2.4,5.4,5.2v50.7C113.4,58.8,110.9,61.2,107.9,61.2z"/>
</g>
<rect x="5" y="2.1" width="104" height="55.6" fill="none"/>
<circle cx="57" cy="0.1" r="0.1"/>
<circle cx="90.7" cy="0" r="0.1"/>
<circle cx="113.4" cy="7.4" r="0.1"/>
<circle cx="113.4" cy="29.9" r="0.1"/>
<circle cx="113.4" cy="49.9" r="0.1"/>
<circle cx="90.6" cy="61.2" r="0.1"/>
<circle cx="57" cy="61.1" r="0.1"/>
<circle cx="19.1" cy="61.2" r="0.1"/>
<circle cx="0" cy="50" r="0.1"/>
<circle cx="0" cy="30.6" r="0.1"/>
<circle cx="0" cy="13.1" r="0.1"/>
<circle cx="19.2" cy="0.1" r="0.1"/>
</g></g><rect stroke="none" stroke-width="0" fill="#FFFFFF" x="0" y="0" width="0" height="0" transform="translate(113.3,29.8)"/><path stroke="#000000" fill="none" d=""/><text font-family="OpenSansCondensedLight" font-size="14pt" fill="black" transform="translate(113.3,29.8)"/><rect stroke-width="0" fill="none" width="104" height="55.6" transform="translate(5,2.1)"/><text font-family="OpenSansCondensedLight" font-size="14pt" fill="black" transform="translate(5,2.1)" text-anchor="middle"><tspan x="52" y="16.8">SCANNING</tspan><tspan x="52" y="37.8">SERVICE</tspan><tspan x="52" y="58.8">104</tspan></text><path stroke="#000000" fill="none" transform="translate(5,2.1)" d="M 38 61 66 61"/></g><g transform="translate(249,344)"><g><g>
<g stroke="#000000" stroke-dasharray="none" fill="#FFFFFF">
    <path d="M362.6,184.8H18.3C8.2,184.8,0,177.7,0,169V15.8C0,7.1,8.2,0,18.3,0h344.3c10.1,0,18.3,7.1,18.3,15.8v153.2C381,177.8,372.7,184.8,362.6,184.8z"/>
</g>
<rect x="16.9" y="6.3" width="349.3" height="168" fill="none"/>
<circle cx="191.4" cy="0.2" r="0.1"/>
<circle cx="304.6" cy="0" r="0.1"/>
<circle cx="381" cy="22.4" r="0.1"/>
<circle cx="381" cy="90.3" r="0.1"/>
<circle cx="381" cy="150.9" r="0.1"/>
<circle cx="304.4" cy="185" r="0.1"/>
<circle cx="191.6" cy="184.6" r="0.1"/>
<circle cx="64.3" cy="184.8" r="0.1"/>
<circle cx="0" cy="151.1" r="0.1"/>
<circle cx="0" cy="92.4" r="0.1"/>
<circle cx="0" cy="39.6" r="0.1"/>
<circle cx="64.5" cy="0.2" r="0.1"/>
</g></g><rect stroke="none" stroke-width="0" fill="#FFFFFF" x="0" y="0" width="0" height="0" transform="translate(380.9,90.2)"/><path stroke="#000000" fill="none" d=""/><text font-family="OpenSansCondensedLight" font-size="14pt" fill="black" transform="translate(380.9,90.2)"/><rect stroke-width="0" fill="none" width="349.3" height="168" transform="translate(16.9,6.3)"/><text font-family="OpenSansCondensedLight" font-size="14pt" fill="black" transform="translate(16.9,6.3)" text-anchor="middle"><tspan x="174.7" y="90.3">CLOUD DATA STORE 106</tspan></text><path stroke="#000000" fill="none" transform="translate(16.9,6.3)" d="M 253.3 92 281.3 92"/></g><g transform="translate(266,361)"><g><g>
<g fill="#FFFFFF">
    <path d="M0,51V3L3.2,0H22.1l3.2,3h47.5l3.2,3v45H0z"/>
</g>
<g stroke="#000000" stroke-dasharray="none">
    <path fill="none" d="M0,51V3L3.2,0H22.1l3.2,3h47.5l3.2,3v45H0"/>
    <path fill="none" d="M0,6h22.1l3.2,-3"/>
</g>
<rect x="2.1" y="5.2" fill="none" width="71.7" height="44.1"/>
<circle fill="none" cx="40" cy="3" r="0.1"/>
<circle fill="none" cx="61.7" cy="3" r="0.1"/>
<circle fill="none" cx="76" cy="8.4" r="0.1"/>
<circle fill="none" cx="76" cy="24.7" r="0.1"/>
<circle fill="none" cx="76" cy="40.9" r="0.1"/>
<circle fill="none" cx="63.4" cy="50.9" r="0.1"/>
<circle fill="none" cx="39.5" cy="50.9" r="0.1"/>
<circle fill="none" cx="15.5" cy="50.9" r="0.1"/>
<circle fill="none" cx="0" cy="41.4" r="0.1"/>
<circle fill="none" cx="0" cy="26.5" r="0.1"/>
<circle fill="none" cx="0" cy="11.5" r="0.1"/>
<circle fill="none" cx="13.1" cy="0" r="0.1"/>
</g></g><rect stroke="none" stroke-width="0" fill="#FFFFFF" x="0" y="0" width="0" height="0" transform="translate(75.9,24.6)"/><path stroke="#000000" fill="none" d=""/><text font-family="OpenSansCondensedLight" font-size="14pt" fill="black" transform="translate(75.9,24.6)"/><rect stroke-width="0" fill="none" width="71.7" height="44.1" transform="translate(2.1,5.2)"/><text font-family="OpenSansCondensedLight" font-size="14pt" fill="black" transform="translate(2.1,5.2)" text-anchor="middle"><tspan x="35.8" y="7.3">CLEAN</tspan><tspan x="35.8" y="28.3">FILE</tspan><tspan x="35.8" y="49.3">108</tspan></text><path stroke="#000000" fill="none" transform="translate(2.1,5.2)" d="M 21.9 51 49.8 51"/></g><g transform="translate(263,432)"><g><g>
<g fill="#FFFFFF">
    <path d="M0,51V3L3.2,0H22.1l3.2,3h47.5l3.2,3v45H0z"/>
</g>
<g stroke="#000000" stroke-dasharray="none">
    <path fill="none" d="M0,51V3L3.2,0H22.1l3.2,3h47.5l3.2,3v45H0"/>
    <path fill="none" d="M0,6h22.1l3.2,-3"/>
</g>
<rect x="2.1" y="5.2" fill="none" width="71.7" height="44.1"/>
<circle fill="none" cx="40" cy="3" r="0.1"/>
<circle fill="none" cx="61.7" cy="3" r="0.1"/>
<circle fill="none" cx="76" cy="8.4" r="0.1"/>
<circle fill="none" cx="76" cy="24.7" r="0.1"/>
<circle fill="none" cx="76" cy="40.9" r="0.1"/>
<circle fill="none" cx="63.4" cy="50.9" r="0.1"/>
<circle fill="none" cx="39.5" cy="50.9" r="0.1"/>
<circle fill="none" cx="15.5" cy="50.9" r="0.1"/>
<circle fill="none" cx="0" cy="41.4" r="0.1"/>
<circle fill="none" cx="0" cy="26.5" r="0.1"/>
<circle fill="none" cx="0" cy="11.5" r="0.1"/>
<circle fill="none" cx="13.1" cy="0" r="0.1"/>
</g></g><rect stroke="none" stroke-width="0" fill="#FFFFFF" x="0" y="0" width="0" height="0" transform="translate(75.9,24.6)"/><path stroke="#000000" fill="none" d=""/><text font-family="OpenSansCondensedLight" font-size="14pt" fill="black" transform="translate(75.9,24.6)"/><rect stroke-width="0" fill="none" width="71.7" height="44.1" transform="translate(2.1,5.2)"/><text font-family="OpenSansCondensedLight" font-size="14pt" fill="black" transform="translate(2.1,5.2)" text-anchor="middle"><tspan x="35.8" y="7.3">CLEAN</tspan><tspan x="35.8" y="28.3">FILE</tspan><tspan x="35.8" y="49.3">110</tspan></text><path stroke="#000000" fill="none" transform="translate(2.1,5.2)" d="M 22.2 51 49.5 51"/></g><g transform="translate(538,360)"><g><g>
<g fill="#FFFFFF">
    <path d="M0,52.6V3.1L3,0H21.2l3,3.1h45.4l3,3.1v46.4H0z"/>
</g>
<g stroke="#000000" stroke-dasharray="none">
    <path fill="none" d="M0,52.6V3.1L3,0H21.2l3,3.1h45.4l3,3.1v46.4H0"/>
    <path fill="none" d="M0,6.2h21.2l3,-3.1"/>
</g>
<rect x="2" y="5.4" fill="none" width="68.5" height="45.5"/>
<circle fill="none" cx="38.3" cy="3.1" r="0.1"/>
<circle fill="none" cx="58.9" cy="3.1" r="0.1"/>
<circle fill="none" cx="72.6" cy="8.7" r="0.1"/>
<circle fill="none" cx="72.6" cy="25.5" r="0.1"/>
<circle fill="none" cx="72.6" cy="42.2" r="0.1"/>
<circle fill="none" cx="60.6" cy="52.5" r="0.1"/>
<circle fill="none" cx="37.7" cy="52.5" r="0.1"/>
<circle fill="none" cx="14.9" cy="52.5" r="0.1"/>
<circle fill="none" cx="0" cy="42.7" r="0.1"/>
<circle fill="none" cx="0" cy="27.3" r="0.1"/>
<circle fill="none" cx="0" cy="11.9" r="0.1"/>
<circle fill="none" cx="12.5" cy="0" r="0.1"/>
</g></g><rect stroke="none" stroke-width="0" fill="#FFFFFF" x="0" y="0" width="0" height="0" transform="translate(72.5,25.4)"/><path stroke="#000000" fill="none" d=""/><text font-family="OpenSansCondensedLight" font-size="14pt" fill="black" transform="translate(72.5,25.4)"/><rect stroke-width="0" fill="none" width="68.5" height="45.5" transform="translate(2,5.4)"/><text font-family="OpenSansCondensedLight" font-size="14pt" fill="black" transform="translate(2,5.4)" text-anchor="middle"><tspan x="34.3" y="8">MALICIOUS</tspan><tspan x="34.3" y="29">FILE</tspan><tspan x="34.3" y="50">112</tspan></text><path stroke="#000000" fill="none" transform="translate(2,5.4)" d="M 20.6 52 47.9 52"/></g><g transform="translate(527,418)"><g><g>
<path d="M93.2,0H0v46.4h93.2V0L93.2,0z" fill="none" stroke="none" stroke-dasharray="none"/>
<rect x="4.1" y="2.1" width="85.1" height="42.2" fill="none"/>
<circle fill="none" cx="46.6" cy="0" r="0.1"/>
<circle fill="none" cx="69.7" cy="0" r="0.1"/>
<circle fill="none" cx="93.2" cy="11.7" r="0.1"/>
<circle fill="none" cx="93.2" cy="23.2" r="0.1"/>
<circle fill="none" cx="93.2" cy="34.7" r="0.1"/>
<circle fill="none" cx="69.7" cy="46.4" r="0.1"/>
<circle fill="none" cx="46.6" cy="46.4" r="0.1"/>
<circle fill="none" cx="23.5" cy="46.4" r="0.1"/>
<circle fill="none" cx="0" cy="34.7" r="0.1"/>
<circle fill="none" cx="0" cy="23.2" r="0.1"/>
<circle fill="none" cx="0" cy="11.7" r="0.1"/>
<circle fill="none" cx="23.5" cy="0" r="0.1"/>
</g></g><rect stroke="none" stroke-width="0" fill="#FFFFFF" x="0" y="0" width="0" height="0" transform="translate(93.1,23.1)"/><path stroke="#000000" fill="none" d=""/><text font-family="OpenSansCondensedLight" font-size="14pt" fill="black" transform="translate(93.1,23.1)"/><rect stroke-width="0" fill="none" width="85.1" height="42.2" transform="translate(4.1,2.1)"/><text font-family="OpenSansCondensedLight" font-size="14pt" fill="black" transform="translate(4.1,2.1)" text-anchor="middle"><tspan x="42.5" y="16.9">BLOCK BY</tspan><tspan x="42.5" y="37.9">PERMISSIONS</tspan></text><path stroke="#000000" fill="none" transform="translate(4.1,2.1)" d="M 0 0"/></g><g transform="translate(72,348)"><g><g>
<g stroke="#000000" stroke-dasharray="none" fill="#FFFFFF">
    <path d="M94.2,114.9H4.8C2.1,114.9,0,110.5,0,105.1V9.8C0,4.4,2.1,0,4.8,0h89.5c2.6,0,4.8,4.4,4.8,9.8v95.2C99,110.5,96.9,114.9,94.2,114.9z"/>
</g>
<rect x="4.4" y="3.9" width="90.8" height="104.4" fill="none"/>
<circle cx="49.7" cy="0.1" r="0.1"/>
<circle cx="79.2" cy="0" r="0.1"/>
<circle cx="99" cy="13.9" r="0.1"/>
<circle cx="99" cy="56.1" r="0.1"/>
<circle cx="99" cy="93.8" r="0.1"/>
<circle cx="79.1" cy="115" r="0.1"/>
<circle cx="49.8" cy="114.8" r="0.1"/>
<circle cx="16.7" cy="114.9" r="0.1"/>
<circle cx="0" cy="93.9" r="0.1"/>
<circle cx="0" cy="57.4" r="0.1"/>
<circle cx="0" cy="24.6" r="0.1"/>
<circle cx="16.8" cy="0.1" r="0.1"/>
</g></g><rect stroke="none" stroke-width="0" fill="#FFFFFF" x="0" y="0" width="0" height="0" transform="translate(98.9,56)"/><path stroke="#000000" fill="none" d=""/><text font-family="OpenSansCondensedLight" font-size="14pt" fill="black" transform="translate(98.9,56)"/><rect stroke-width="0" fill="none" width="90.8" height="104.4" transform="translate(4.4,3.9)"/><text font-family="OpenSansCondensedLight" font-size="14pt" fill="black" transform="translate(4.4,3.9)" text-anchor="middle"><tspan x="45.4" y="16.5">VPC</tspan><tspan x="45.4" y="37.5">CONTAINING</tspan><tspan x="45.4" y="58.5">VM</tspan><tspan x="45.4" y="79.5">INSTANCES</tspan><tspan x="45.4" y="100.5">114</tspan></text><path stroke="#000000" fill="none" transform="translate(4.4,3.9)" d="M 31.7 103 59 103"/></g><g><path stroke="black" stroke-dasharray="none" d="M 241 491 218 491 219 361 179 361" fill="none"/><path fill="black" stroke="black" d="M 8 0 L 0 4 L 8 8 z" transform="translate(249,495) scale(1,1) rotate(-180)"/><path fill="black" stroke="black" d="M 8 0 L 0 4 L 8 8 z" transform="translate(171,357) scale(1,1) rotate(0)"/><g><g label-idx="0" cursor="move" transform="translate(218.6, 417.5)"><rect fill="white" rx="3" ry="3" x="0" y="0" width="0" height="0"/><text text-anchor="middle" font-size="14pt" font-family="OpenSansCondensedLight" y="0.8em" display="none" xml:space="preserve" transform="translate(0,0)"/></g></g></g><g><path stroke="black" stroke-dasharray="none" d="M 192 361 192 491 219 491" fill="none"/><path fill="black" stroke="black" d="" transform="translate(192,361) scale(1,1) rotate(-270)"/><path fill="black" stroke="black" d="" transform="translate(219,491) scale(1,1) rotate(-180)"/><g><g label-idx="0" cursor="move" transform="translate(192, 439.5)"><rect fill="white" rx="3" ry="3" x="0" y="0" width="0" height="0"/><text text-anchor="middle" font-size="14pt" font-family="OpenSansCondensedLight" y="0.8em" display="none" xml:space="preserve" transform="translate(0,0)"/></g></g></g><g transform="translate(169,497)"><g><g>
<path d="M81,0H0v24h81V0L81,0z" fill="none" stroke="none" stroke-dasharray="none"/>
<rect x="3.5" y="1.1" width="73.9" height="21.8" fill="none"/>
<circle fill="none" cx="40.5" cy="0" r="0.1"/>
<circle fill="none" cx="60.6" cy="0" r="0.1"/>
<circle fill="none" cx="81" cy="6.1" r="0.1"/>
<circle fill="none" cx="81" cy="12" r="0.1"/>
<circle fill="none" cx="81" cy="17.9" r="0.1"/>
<circle fill="none" cx="60.6" cy="24" r="0.1"/>
<circle fill="none" cx="40.5" cy="24" r="0.1"/>
<circle fill="none" cx="20.4" cy="24" r="0.1"/>
<circle fill="none" cx="0" cy="17.9" r="0.1"/>
<circle fill="none" cx="0" cy="12" r="0.1"/>
<circle fill="none" cx="0" cy="6.1" r="0.1"/>
<circle fill="none" cx="20.4" cy="0" r="0.1"/>
</g></g><rect stroke="none" stroke-width="0" fill="#FFFFFF" x="0" y="0" width="0" height="0" transform="translate(80.9,11.9)"/><path stroke="#000000" fill="none" d=""/><text font-family="OpenSansCondensedLight" font-size="14pt" fill="black" transform="translate(80.9,11.9)"/><rect stroke-width="0" fill="none" width="73.9" height="21.8" transform="translate(3.5,1.1)"/><text font-family="OpenSansCondensedLight" font-size="14pt" fill="black" transform="translate(3.5,1.1)" text-anchor="middle"><tspan x="37" y="17.2">FILE ACCESS</tspan></text><path stroke="#000000" fill="none" transform="translate(3.5,1.1)" d="M 0 0"/></g><g transform="translate(161,306)"><g><g>
<path d="M98.4,0H0v46.4h98.4V0L98.4,0z" fill="none" stroke="none" stroke-dasharray="none"/>
<rect x="4.3" y="2.1" width="89.8" height="42.2" fill="none"/>
<circle fill="none" cx="49.2" cy="0" r="0.1"/>
<circle fill="none" cx="73.6" cy="0" r="0.1"/>
<circle fill="none" cx="98.4" cy="11.7" r="0.1"/>
<circle fill="none" cx="98.4" cy="23.2" r="0.1"/>
<circle fill="none" cx="98.4" cy="34.7" r="0.1"/>
<circle fill="none" cx="73.6" cy="46.4" r="0.1"/>
<circle fill="none" cx="49.2" cy="46.4" r="0.1"/>
<circle fill="none" cx="24.8" cy="46.4" r="0.1"/>
<circle fill="none" cx="0" cy="34.7" r="0.1"/>
<circle fill="none" cx="0" cy="23.2" r="0.1"/>
<circle fill="none" cx="0" cy="11.7" r="0.1"/>
<circle fill="none" cx="24.8" cy="0" r="0.1"/>
</g></g><rect stroke="none" stroke-width="0" fill="#FFFFFF" x="0" y="0" width="0" height="0" transform="translate(98.3,23.1)"/><path stroke="#000000" fill="none" d=""/><text font-family="OpenSansCondensedLight" font-size="14pt" fill="black" transform="translate(98.3,23.1)"/><rect stroke-width="0" fill="none" width="89.8" height="42.2" transform="translate(4.3,2.1)"/><text font-family="OpenSansCondensedLight" font-size="14pt" fill="black" transform="translate(4.3,2.1)" text-anchor="middle"><tspan x="44.9" y="16.9">FILE</tspan><tspan x="44.9" y="37.9">MODIFICATION</tspan></text><path stroke="#000000" fill="none" transform="translate(4.3,2.1)" d="M 0 0"/></g><g transform="translate(207,32)"><g><g>
<path d="M63.8,0c-13.8,0,-25.5,8.1,-29.7,19.5C15,21.6,0,36.7,0,55.2c0,19.8,17.2,35.9,38.2,35.9c1.1,0,2.2,0,3.3,-0.2c3.7,11.7,15,20.3,28.9,20.3c11.3,0,21.4,-6,26.3,-14.8c5.3,5.2,12.7,8.3,21,8.3c13,0,24.1,-7.8,28,-18.7c0.3,0,0.3,0,0.6,0c17.4,0,31.6,-13.3,31.6,-29.6s-14.1,-29.7,-31.6,-29.7c-3.4,0,-6.4,0.5,-9.1,1.3c-2.8,-11.2,-13.6,-19.5,-26.3,-19.5c-7.5,0,-14.1,2.8,-19.1,7.6C86.4,6.5,75.9,0,63.8,0L63.8,0z" stroke="#000000" stroke-dasharray="none" fill="#FFFFFF"/>
<rect x="16.2" y="34.6" width="142.7" height="42.1" fill="none"/>
<circle fill="none" cx="91.7" cy="15.8" r="0.1"/>
<circle fill="none" cx="116.9" cy="9" r="0.1"/>
<circle fill="none" cx="137.2" cy="27.8" r="0.1"/>
<circle fill="none" cx="177.9" cy="55.3" r="0.1"/>
<circle fill="none" cx="145.8" cy="85.9" r="0.1"/>
<circle fill="none" cx="120" cy="104.6" r="0.1"/>
<circle fill="none" cx="96.7" cy="96.3" r="0.1"/>
<circle fill="none" cx="69.5" cy="111.1" r="0.1"/>
<circle fill="none" cx="0" cy="55.2" r="0.1"/>
<circle fill="none" cx="41.5" cy="90.8" r="0.1"/>
<circle fill="none" cx="34.1" cy="19.5" r="0.1"/>
<circle fill="none" cx="63.7" cy="0" r="0.1"/>
</g></g><rect stroke="none" stroke-width="1" fill="#FFFFFF" x="0" y="0" width="40" height="20" transform="translate(-38,-20.6)"/><path stroke="#000000" fill="none" d="M34.1,19.5 C27.9,-3.7 5.6,22.7 -0.7 -0.6"/><text font-family="OpenSansCondensedLight" font-size="14pt" fill="black" transform="translate(-38,-20.6)" text-anchor="middle"><tspan x="20" y="16.3">116</tspan></text><rect stroke-width="0" fill="none" width="142.7" height="42.1" transform="translate(16.2,34.6)"/><text font-family="OpenSansCondensedLight" font-size="14pt" fill="black" transform="translate(16.2,34.6)" text-anchor="middle"><tspan x="71.4" y="27.4">SECURITY MANAGER</tspan></text><path stroke="#000000" fill="none" transform="translate(16.2,34.6)" d="M 0 0"/></g><g><path stroke="black" stroke-dasharray="none" d="M 206 87 178 87 180 277 281 277" fill="none"/><path fill="black" stroke="black" d="" transform="translate(206,87) scale(1,1) rotate(-180)"/><path fill="black" stroke="black" d="M 8 0 L 0 4 L 8 8 z" transform="translate(289,281) scale(1,1) rotate(-180)"/><g><g label-idx="0" cursor="move" transform="translate(179.4, 218.5)"><rect fill="white" rx="3" ry="3" x="-50.3" y="-13.1" width="100.5" height="22"/><text text-anchor="start" font-size="14pt" font-family="OpenSansCondensedLight" y="0.8em" display="null" xml:space="preserve" transform="translate(0,-11)"><tspan x="-40.9" y="0.8em">POLICIES</tspan></text></g></g></g><g><path stroke="black" stroke-dasharray="none" d="M 402 250 412 250 412 172 305 168 305 134" fill="none"/><path fill="black" stroke="black" d="" transform="translate(402,250) scale(1,1) rotate(0)"/><path fill="black" stroke="black" d="M 8 0 L 0 4 L 8 8 z" transform="translate(309,126) scale(1,1) rotate(-270)"/><g><g label-idx="0" cursor="move" transform="translate(385.5, 171)"><rect fill="white" rx="3" ry="3" x="-82.4" y="-13.1" width="164.8" height="22"/><text text-anchor="start" font-size="14pt" font-family="OpenSansCondensedLight" y="0.8em" display="null" xml:space="preserve" transform="translate(0,-11)"><tspan x="-73" y="0.8em">EVENTS/ALERTS</tspan></text></g></g></g><g transform="translate(477,73)"><g transform="rotate(270,30,63)"><g>
<path d="M60,0H0v119.3c0,0,8.2,6.7,19,6.7s16.6,-13.5,26,-13.5s15,6.7,15,6.7L60,0L60,0z" stroke="#000000" stroke-dasharray="none" fill="#FFFFFF"/>
<rect x="3.9" y="7.5" width="51.9" height="97.5" fill="none"/>
<circle fill="none" cx="30" cy="0" r="0.1"/>
<circle fill="none" cx="44.8" cy="0" r="0.1"/>
<circle fill="none" cx="60" cy="30.1" r="0.1"/>
<circle fill="none" cx="60" cy="59.5" r="0.1"/>
<circle fill="none" cx="60" cy="88.8" r="0.1"/>
<circle fill="none" cx="44.8" cy="112.5" r="0.1"/>
<circle fill="none" cx="30" cy="121.9" r="0.1"/>
<circle fill="none" cx="15.2" cy="125.7" r="0.1"/>
<circle fill="none" cx="0" cy="89.3" r="0.1"/>
<circle fill="none" cx="0" cy="59.8" r="0.1"/>
<circle fill="none" cx="0" cy="30.2" r="0.1"/>
<circle fill="none" cx="15.2" cy="0" r="0.1"/>
</g></g><rect stroke="none" stroke-width="0" fill="#FFFFFF" x="0" y="0" width="0" height="0" transform="translate(88.8,62.9)"/><path stroke="#000000" fill="none" d=""/><text font-family="OpenSansCondensedLight" font-size="14pt" fill="black" transform="translate(88.8,62.9)"/><rect stroke-width="0" fill="none" width="97.5" height="51.9" transform="translate(-25.5,37.1)"/><text font-family="OpenSansCondensedLight" font-size="14pt" fill="black" transform="translate(-25.5,37.1)" text-anchor="middle"><tspan x="48.8" y="32.3">DDS 118</tspan></text><path stroke="#000000" fill="none" transform="translate(-25.5,37.1)" d="M 56.1 34 83.4 34"/></g><g transform="translate(528,10)"><g><g>
<path d="M48.7,0c-10.6,0,-19.5,6.2,-22.7,14.9C11.4,16.5,0,28,0,42.2c0,15.1,13.1,27.4,29.2,27.4c0.8,0,1.7,0,2.5,-0.2c2.8,9,11.5,15.5,22.1,15.5c8.7,0,16.3,-4.6,20.1,-11.3c4,4,9.7,6.4,16.1,6.4c9.9,0,18.4,-6,21.4,-14.3c0.2,0,0.2,0,0.4,0c13.3,0,24.1,-10.1,24.1,-22.7s-10.8,-22.7,-24.2,-22.7c-2.6,0,-4.9,0.4,-7,1c-2.1,-8.6,-10.4,-14.9,-20.1,-14.9c-5.7,0,-10.8,2.2,-14.6,5.8C66.1,5,58,0,48.7,0L48.7,0z" stroke="#000000" stroke-dasharray="none" fill="#FFFFFF"/>
<rect x="12.3" y="26.4" width="109.1" height="32.2" fill="none"/>
<circle fill="none" cx="70.1" cy="12.1" r="0.1"/>
<circle fill="none" cx="89.3" cy="6.8" r="0.1"/>
<circle fill="none" cx="104.9" cy="21.2" r="0.1"/>
<circle fill="none" cx="136" cy="42.2" r="0.1"/>
<circle fill="none" cx="111.4" cy="65.7" r="0.1"/>
<circle fill="none" cx="91.7" cy="79.9" r="0.1"/>
<circle fill="none" cx="73.9" cy="73.6" r="0.1"/>
<circle fill="none" cx="53.1" cy="84.9" r="0.1"/>
<circle fill="none" cx="0" cy="42.2" r="0.1"/>
<circle fill="none" cx="31.7" cy="69.4" r="0.1"/>
<circle fill="none" cx="26.1" cy="14.9" r="0.1"/>
<circle fill="none" cx="48.7" cy="0" r="0.1"/>
</g></g><rect stroke="none" stroke-width="0" fill="#FFFFFF" x="0" y="0" width="0" height="0" transform="translate(135.9,42.1)"/><path stroke="#000000" fill="none" d=""/><text font-family="OpenSansCondensedLight" font-size="14pt" fill="black" transform="translate(135.9,42.1)"/><rect stroke-width="0" fill="none" width="109.1" height="32.2" transform="translate(12.3,26.4)"/><text font-family="OpenSansCondensedLight" font-size="14pt" fill="black" transform="translate(12.3,26.4)" text-anchor="middle"><tspan x="54.6" y="1.4">DATA</tspan><tspan x="54.6" y="22.4">LOOKUP</tspan><tspan x="54.6" y="43.4">120</tspan></text><path stroke="#000000" fill="none" transform="translate(12.3,26.4)" d="M 40.6 46 68.5 46"/></g><g><path stroke="black" stroke-dasharray="none" d="M 402 276 590 276 590 101" fill="none"/><path fill="black" stroke="black" d="" transform="translate(402,276) scale(1,1) rotate(0)"/><path fill="black" stroke="black" d="M 8 0 L 0 4 L 8 8 z" transform="translate(594,93) scale(1,1) rotate(-270)"/><g><g label-idx="0" cursor="move" transform="translate(583.5, 276)"><rect fill="white" rx="3" ry="3" x="-91" y="-13.1" width="181.9" height="22"/><text text-anchor="start" font-size="14pt" font-family="OpenSansCondensedLight" y="0.8em" display="null" xml:space="preserve" transform="translate(0,-11)"><tspan x="-81.6" y="0.8em">LIVE PROTECTION</tspan></text></g></g></g><g><path stroke="black" stroke-dasharray="none" d="M 402 249 508 249 508 174" fill="none"/><path fill="black" stroke="black" d="" transform="translate(402,249) scale(1,1) rotate(0)"/><path fill="black" stroke="black" d="M 8 0 L 0 4 L 8 8 z" transform="translate(512,166) scale(1,1) rotate(-270)"/><g><g label-idx="0" cursor="move" transform="translate(492.5, 249)"><rect fill="white" rx="3" ry="3" x="-101.1" y="-13.1" width="202.2" height="22"/><text text-anchor="start" font-size="14pt" font-family="OpenSansCondensedLight" y="0.8em" display="null" xml:space="preserve" transform="translate(0,-11)"><tspan x="-91.8" y="0.8em">DATA DISTRIBUTION</tspan></text></g></g></g><g transform="translate(162,671)"><g><g>
<g stroke-width="0.5" stroke="#000000" stroke-dasharray="none" fill="#FFFFFF">
    <path d="M90.4,0c0.1,0,0.3,0.1,0.3,0.1c0.1,0,0.2,0.1,0.3,0.2c0.1,0.1,0.2,0.2,0.2,0.3c0.1,0.1,0.1,0.2,0.1,0.3l1.4,51.4c0,0.1,0,0.2,-0.1,0.4c-0.1,0.1,-0.1,0.2,-0.2,0.3c-0.1,0.1,-0.2,0.2,-0.3,0.2c-0.1,0.1,-0.2,0.1,-0.3,0.1H7.3c-0.1,0,-0.2,-0.1,-0.3,-0.1c-0.1,-0.1,-0.2,-0.1,-0.3,-0.2c-0.1,-0.1,-0.2,-0.2,-0.2,-0.3c-0.1,-0.1,-0.1,-0.3,-0.1,-0.4l1.3,-51.3c0,-0.1,0.1,-0.2,0.1,-0.3c0.1,-0.1,0.1,-0.2,0.2,-0.3c0.1,-0.1,0.2,-0.1,0.3,-0.2C8.4,0.1,8.5,0,8.6,0H90.4z"/>
    <path d="M91.6,53.4c0.1,0,0.2,0,0.4,0.1s0.2,0.1,0.3,0.1c0.1,0.1,0.2,0.1,0.2,0.1c0.1,0.1,0.1,0.1,0.1,0.2l6.4,25.2c-0.1,0.4,-0.7,0.5,-0.9,0.5H0.9c-0.2,0,-0.3,-0,-0.4,-0.1c-0.4,-0.1,-0.5,-0.4,-0.5,-0.5l6.3,-25.2c0,-0.1,0.1,-0.1,0.1,-0.2c0.1,-0.1,0.1,-0.1,0.2,-0.1c0.1,-0.1,0.2,-0.1,0.3,-0.1c0.1,-0.1,0.3,-0.1,0.4,-0.1L91.6,53.4L91.6,53.4z"/>
    <path d="M99,79.1c-0.1,0.7,-0.1,1.4,-0.2,2.1c-0,0.1,-0.3,0.3,-0.4,0.4c-0.1,0.1,-0.5,0.1,-0.6,0.1l0.2,-2C98.6,79.6,99,79.3,99,79.1z"/>
    <polygon points="98.1,79.6 97.9,81.6 1,81.6 0.9,79.6"/>
    <path d="M1.1,81.6c-0.1,0,-0.3,0,-0.5,-0.1c-0.2,-0.1,-0.4,-0.2,-0.4,-0.2c-0.1,-0.1,-0.1,-0.1,-0.1,-0.2l0,0c-0.1,-0.7,-0.1,-1.4,-0.2,-2.1c0,0.2,0.3,0.5,0.9,0.5"/>
    <path d="M94.3,67.5c0,0.4,-0.3,0.8,-0.7,0.8H6.1c-0.4,0,-0.7,-0.3,-0.7,-0.8l3,-12c0,-0.4,0.3,-0.8,0.7,-0.8h81.5c0.4,0,0.7,0.3,0.7,0.8L94.3,67.5z"/>
    <path d="M8.5,58.5c0.1,0.1,0.1,0.1,0.1,0.1c0.1,0,0.1,0,0.2,0h3.9c0.1,0,0.1,0,0.2,0s0.1,-0.1,0.1,-0.1s0.1,-0.1,0.1,-0.1c0.1,-0.1,0.1,-0.1,0.1,-0.1l0.3,-1.5c0,-0.1,0,-0.1,-0.1,-0.1c-0.1,-0.1,-0.1,-0.1,-0.1,-0.1c-0.1,0,-0.1,-0.1,-0.1,-0.1c-0.1,0,-0.1,0,-0.2,0H9.2c-0.1,0,-0.1,0,-0.2,0c-0.1,0,-0.1,0.1,-0.1,0.1c-0.1,0.1,-0.1,0.1,-0.1,0.1c-0.1,0.1,-0.1,0.1,-0.1,0.1l-0.3,1.5c0,0.1,0,0.1,0,0.1C8.4,58.5,8.4,58.5,8.5,58.5L8.5,58.5zM13.6,58.5c0.1,0.1,0.1,0.1,0.1,0.1c0.1,0,0.1,0,0.2,0h3.9c0.1,0,0.1,0,0.2,0s0.1,-0.1,0.1,-0.1c0.1,-0.1,0.1,-0.1,0.1,-0.1c0.1,-0.1,0.1,-0.1,0.1,-0.1l0.3,-1.5c0,-0.1,0,-0.1,-0.1,-0.1c-0.1,-0.1,-0.1,-0.1,-0.1,-0.1c-0.1,0,-0.1,-0.1,-0.1,-0.1s-0.1,0,-0.2,0H14.3c-0.1,0,-0.1,0,-0.2,0s-0.1,0.1,-0.1,0.1s-0.1,0.1,-0.1,0.1c-0.1,0.1,-0.1,0.1,-0.1,0.1l-0.3,1.5c0,0.1,0,0.1,0.1,0.1C13.6,58.5,13.6,58.5,13.6,58.5L13.6,58.5zM19.2,56.8c-0.1,0,-0.1,0.1,-0.1,0.1s-0.1,0.1,-0.1,0.1c-0.1,0.1,-0.1,0.1,-0.1,0.1l-0.3,1.5c0,0.1,0,0.1,0.1,0.1c0.1,0.1,0.1,0.1,0.1,0.1c0.1,0.1,0.1,0.1,0.1,0.1c0.1,0,0.1,0,0.2,0h3.9c0.1,0,0.1,0,0.2,0s0.1,-0.1,0.1,-0.1c0.1,-0.1,0.1,-0.1,0.1,-0.1c0.1,-0.1,0.1,-0.1,0.1,-0.1l0.2,-1.5c0,-0.1,0,-0.1,-0.1,-0.1c-0.1,-0.1,-0.1,-0.1,-0.1,-0.1c-0.1,0,-0.1,-0.1,-0.1,-0.1s-0.1,0,-0.2,0h-3.9C19.3,56.7,19.3,56.7,19.2,56.8L19.2,56.8zM24.1,58.5c0.1,0,0.1,0,0.2,0h3.9c0.1,0,0.1,0,0.2,0s0.1,-0.1,0.1,-0.1c0.1,-0.1,0.1,-0.1,0.1,-0.1c0.1,-0.1,0.1,-0.1,0.1,-0.1l0.2,-1.5c0,-0.1,0,-0.1,-0.1,-0.1c-0.1,-0.1,-0.1,-0.1,-0.1,-0.1c-0.1,0,-0.1,-0.1,-0.1,-0.1s-0.1,0,-0.2,0h-3.8c-0.1,0,-0.1,0,-0.2,0s-0.1,0.1,-0.1,0.1c-0.1,0.1,-0.1,0.1,-0.1,0.1c-0.1,0.1,-0.1,0.1,-0.1,0.1l-0.2,1.5c0,0.1,0,0.1,0.1,0.1c0.1,0.1,0.1,0.1,0.1,0.1C24,58.5,24.1,58.5,24.1,58.5L24.1,58.5zM33.7,56.8c-0.1,-0.1,-0.1,-0.1,-0.1,-0.1s-0.1,0,-0.2,0h-3.9c-0.1,0,-0.1,0,-0.2,0c-0.1,0,-0.1,0.1,-0.1,0.1c-0.1,0,-0.1,0.1,-0.1,0.1c-0.1,0.1,-0.1,0.1,-0.1,0.1l-0.1,1.5c0,0.1,0,0.1,0.1,0.1c0.1,0.1,0.1,0.1,0.1,0.1c0.1,0.1,0.1,0.1,0.1,0.1s0.1,0,0.2,0h3.9c0.1,0,0.1,0,0.2,0c0.1,0,0.1,-0.1,0.1,-0.1c0.1,-0.1,0.1,-0.1,0.1,-0.1c0.1,-0.1,0.1,-0.1,0.1,-0.1l0.1,-1.5c0,-0.1,0,-0.1,-0.1,-0.1C33.9,56.9,33.9,56.8,33.7,56.8L33.7,56.8zM38.9,56.8c-0.1,0,-0.1,-0.1,-0.1,-0.1s-0.1,0,-0.2,0h-3.9c-0.1,0,-0.1,0,-0.2,0c-0.1,0,-0.1,0.1,-0.1,0.1c-0.1,0,-0.1,0.1,-0.1,0.1c-0.1,0.1,-0.1,0.1,-0.1,0.1l-0.1,1.5c0,0.1,0,0.1,0.1,0.1c0.1,0.1,0.1,0.1,0.1,0.1c0.1,0.1,0.1,0.1,0.1,0.1s0.1,0,0.2,0h3.9c0.1,0,0.1,0,0.2,0c0.1,0,0.1,-0.1,0.1,-0.1c0.1,0,0.1,-0.1,0.1,-0.1c0.1,-0.1,0.1,-0.1,0.1,-0.1l0.1,-1.5c0,-0.1,0,-0.1,-0.1,-0.1C39,56.9,38.9,56.8,38.9,56.8zM44,56.8c-0.1,0,-0.1,-0.1,-0.1,-0.1c-0.1,0,-0.1,0,-0.2,0h-3.9c-0.1,0,-0.1,0,-0.2,0s-0.1,0.1,-0.1,0.1s-0.1,0.1,-0.1,0.1c-0.1,0.1,-0.1,0.1,-0.1,0.1l-0.1,1.5c0,0.1,0,0.1,0.1,0.1c0.1,0.1,0.1,0.1,0.1,0.1c0.1,0.1,0.1,0.1,0.1,0.1c0.1,0,0.1,0,0.2,0h3.9c0.1,0,0.1,0,0.2,0c0.1,0,0.1,-0.1,0.1,-0.1c0.1,-0.1,0.1,-0.1,0.1,-0.1c0.1,-0.1,0.1,-0.1,0.1,-0.1l0.1,-1.5c0,-0.1,0,-0.1,-0.1,-0.1C44.1,56.9,44,56.8,44,56.8L44,56.8zM49.3,56.9c-0.1,-0.1,-0.1,-0.1,-0.1,-0.1c-0.1,0,-0.1,-0.1,-0.1,-0.1c-0.1,0,-0.1,0,-0.2,0h-3.9c-0.1,0,-0.1,0,-0.2,0c-0.1,0,-0.1,0.1,-0.1,0.1s-0.1,0.1,-0.1,0.1c-0.1,0.1,-0.1,0.1,-0.1,0.1l-0.1,1.5c0,0.1,0,0.1,0.1,0.1c0.1,0.1,0.1,0.1,0.1,0.1c0.1,0.1,0.1,0.1,0.1,0.1c0.1,0,0.1,0,0.2,0h3.9c0.1,0,0.1,0,0.2,0s0.1,-0.1,0.1,-0.1c0.1,-0.1,0.1,-0.1,0.1,-0.1c0.1,-0.1,0.1,-0.1,0.1,-0.1v-1.5C49.3,56.9,49.3,56.9,49.3,56.9L49.3,56.9zM54.4,56.9c-0.1,-0.1,-0.1,-0.1,-0.1,-0.1c-0.1,0,-0.1,-0.1,-0.1,-0.1c-0.1,0,-0.1,0,-0.2,0h-3.8c-0.1,0,-0.1,0,-0.2,0s-0.1,0.1,-0.1,0.1c-0.1,0,-0.1,0.1,-0.1,0.1c-0.1,0.1,-0.1,0.1,-0.1,0.1v1.5c0,0.1,0,0.1,0.1,0.1c0.1,0.1,0.1,0.1,0.1,0.1c0.1,0.1,0.1,0.1,0.1,0.1c0.1,0,0.1,0,0.2,0h3.9c0.1,0,0.1,0,0.2,0s0.1,-0.1,0.1,-0.1c0.1,-0.1,0.1,-0.1,0.1,-0.1c0.1,-0.1,0.1,-0.1,0.1,-0.1l-0.1,-1.5C54.4,56.9,54.4,56.9,54.4,56.9L54.4,56.9zM59.6,56.9c-0.1,-0.1,-0.1,-0.1,-0.1,-0.1c-0.1,0,-0.1,-0.1,-0.1,-0.1c-0.1,0,-0.1,0,-0.2,0h-3.9c-0.1,0,-0.1,0,-0.2,0s-0.1,0.1,-0.1,0.1c-0.1,0,-0.1,0.1,-0.1,0.1c-0.1,0.1,-0.1,0.1,-0.1,0.1l0.1,1.5c0,0.1,0,0.1,0.1,0.1c0.1,0.1,0.1,0.1,0.1,0.1c0.1,0.1,0.1,0.1,0.1,0.1c0.1,0,0.1,0,0.2,0h3.9c0.1,0,0.1,0,0.2,0s0.1,-0.1,0.1,-0.1c0.1,-0.1,0.1,-0.1,0.1,-0.1c0.1,-0.1,0.1,-0.1,0.1,-0.1l-0.1,-1.5C59.6,56.9,59.6,56.9,59.6,56.9L59.6,56.9zM64.7,56.9c-0.1,-0.1,-0.1,-0.1,-0.1,-0.1c-0.1,0,-0.1,-0.1,-0.1,-0.1c-0.1,0,-0.1,0,-0.2,0h-3.9c-0.1,0,-0.1,0,-0.2,0s-0.1,0.1,-0.1,0.1c-0.1,0,-0.1,0.1,-0.1,0.1c-0.1,0.1,-0.1,0.1,-0.1,0.1l0.1,1.5c0,0.1,0,0.1,0.1,0.1c0.1,0.1,0.1,0.1,0.1,0.1c0.1,0.1,0.1,0.1,0.1,0.1c0.1,0,0.1,0,0.2,0h3.9c0.1,0,0.1,0,0.2,0s0.1,-0.1,0.1,-0.1c0.1,-0.1,0.1,-0.1,0.1,-0.1c0.1,-0.1,0.1,-0.1,0.1,-0.1l-0.1,-1.5C64.7,56.9,64.7,56.9,64.7,56.9L64.7,56.9zM69.8,56.9c-0.1,-0.1,-0.1,-0.1,-0.1,-0.1c-0.1,-0.1,-0.1,-0.1,-0.1,-0.1c-0.1,0,-0.1,0,-0.2,0h-3.9c-0.1,0,-0.1,0,-0.2,0s-0.1,0.1,-0.1,0.1c-0.1,0,-0.1,0.1,-0.1,0.1c-0.1,0.1,-0.1,0.1,-0.1,0.1l0.2,1.5c0,0.1,0.1,0.1,0.1,0.1c0.1,0.1,0.1,0.1,0.1,0.1c0.1,0.1,0.1,0.1,0.1,0.1c0.1,0,0.1,0,0.2,0h3.9c0.1,0,0.1,0,0.2,0s0.1,-0.1,0.1,-0.1c0.1,-0.1,0.1,-0.1,0.1,-0.1c0.1,-0.1,0.1,-0.1,0.1,-0.1l-0.2,-1.5C69.9,56.9,69.9,56.9,69.8,56.9L69.8,56.9zM74.9,56.9c-0.1,-0.1,-0.1,-0.1,-0.1,-0.1c-0.1,0,-0.1,-0.1,-0.1,-0.1c-0.1,0,-0.1,0,-0.2,0h-3.8c-0.1,0,-0.1,0,-0.2,0s-0.1,0.1,-0.1,0.1s-0.1,0.1,-0.1,0.1c-0.1,0.1,-0.1,0.1,-0.1,0.1l0.2,1.5c0,0.1,0.1,0.1,0.1,0.1c0.1,0.1,0.1,0.1,0.1,0.1c0.1,0.1,0.1,0.1,0.1,0.1c0.1,0,0.1,0,0.2,0h3.9c0.1,0,0.1,0,0.2,0s0.1,-0.1,0.1,-0.1c0.1,-0.1,0.1,-0.1,0.1,-0.1c0.1,-0.1,0.1,-0.1,0.1,-0.1l-0.2,-1.5C75,56.9,74.9,56.9,74.9,56.9L74.9,56.9zM85.3,56.9c-0.1,-0.1,-0.1,-0.1,-0.1,-0.1c-0.1,0,-0.1,-0.1,-0.1,-0.1c-0.1,0,-0.1,0,-0.2,0h-9c-0.1,0,-0.1,0,-0.2,0s-0.1,0.1,-0.1,0.1c-0.1,0.1,-0.1,0.1,-0.1,0.1c-0.1,0.1,-0.1,0.1,-0.1,0.1l0.2,1.5c0,0.1,0.1,0.1,0.1,0.1c0.1,0.1,0.1,0.1,0.1,0.1c0.1,0.1,0.1,0.1,0.1,0.1c0.1,0,0.1,0,0.2,0h9.1c0.1,0,0.1,0,0.2,0s0.1,-0.1,0.1,-0.1c0.1,-0.1,0.1,-0.1,0.1,-0.1c0.1,-0.1,0.1,-0.1,0.1,-0.1l-0.3,-1.5L85.3,56.9L85.3,56.9zM86.3,58.5c0.1,0.1,0.1,0.1,0.1,0.1c0.1,0.1,0.1,0.1,0.1,0.1c0.1,0,0.1,0,0.2,0h3.9c0.1,0,0.1,0,0.2,0c0.1,0,0.1,-0.1,0.1,-0.1c0.1,-0.1,0.1,-0.1,0.1,-0.1c0,-0.1,0.1,-0.1,0,-0.1l-0.3,-1.5c0,-0.1,-0.1,-0.1,-0.1,-0.1s-0.1,-0.1,-0.1,-0.1c-0.1,-0.1,-0.1,-0.1,-0.1,-0.1c-0.1,0,-0.1,0,-0.2,0h-3.9c-0.1,0,-0.1,0,-0.2,0s-0.1,0.1,-0.1,0.1c-0.1,0.1,-0.1,0.1,-0.1,0.1c-0.1,0.1,-0.1,0.1,-0.1,0.1l0.3,1.5C86.2,58.5,86.2,58.5,86.3,58.5zM20,60.7c0.1,0,0.1,-0.1,0.1,-0.1c0.1,-0.1,0.1,-0.1,0.1,-0.1c0.1,-0.1,0.1,-0.1,0.1,-0.1l0.3,-1.5c0,-0.1,0,-0.1,-0.1,-0.1c-0.1,-0.1,-0.1,-0.1,-0.1,-0.1c-0.1,-0.1,-0.1,-0.1,-0.1,-0.1c-0.1,0,-0.1,0,-0.2,0H16.2c-0.1,0,-0.1,0,-0.2,0s-0.1,0.1,-0.1,0.1c-0.1,0.1,-0.1,0.1,-0.1,0.1c-0.1,0.1,-0.1,0.1,-0.1,0.1l-0.3,1.5c0,0.1,0,0.1,0.1,0.1c0.1,0.1,0.1,0.1,0.1,0.1c0.1,0.1,0.1,0.1,0.1,0.1c0.1,0,0.1,0,0.2,0h3.9C19.9,60.8,19.9,60.8,20,60.7zM7.9,60.7C8,60.8,8,60.8,8,60.8s0.1,0,0.2,0h6.2c0.1,0,0.1,0,0.2,0c0.1,0,0.1,-0.1,0.1,-0.1c0.1,-0.1,0.1,-0.1,0.1,-0.1c0.1,-0.1,0.1,-0.1,0.1,-0.1l0.3,-1.5c0,-0.1,0,-0.1,-0.1,-0.1c-0.1,-0.1,-0.1,-0.1,-0.1,-0.1c-0.1,-0.1,-0.1,-0.1,-0.1,-0.1c-0.1,0,-0.1,0,-0.2,0H8.6c-0.1,0,-0.1,0,-0.2,0c-0.1,0,-0.1,0.1,-0.1,0.1c-0.1,0.1,-0.1,0.1,-0.1,0.1c-0.1,0.1,-0.1,0.1,-0.1,0.1l-0.4,1.5c0,0.1,0,0.1,0,0.1C7.9,60.7,7.9,60.7,7.9,60.7L7.9,60.7zM25.2,60.7c0.1,0,0.1,-0.1,0.1,-0.1c0.1,0,0.1,0,0.1,0c0.1,-0.1,0.1,-0.1,0.1,-0.1l0.2,-1.5c0,-0.1,0,-0.1,-0.1,-0.1c-0.1,-0.1,-0.1,-0.1,-0.1,-0.1c-0.1,-0.1,-0.1,-0.1,-0.1,-0.1s-0.1,0,-0.2,0h-3.9c-0.1,0,-0.1,0,-0.2,0s-0.1,0.1,-0.1,0.1c-0.1,0.1,-0.1,0.1,-0.1,0.1c-0.1,0.1,-0.1,0.1,-0.1,0.1l-0.3,1.5c0,0.1,0,0.1,0.1,0.1c0.1,0.1,0.1,0.1,0.1,0.1c0.1,0.1,0.1,0.1,0.1,0.1c0.1,0,0.1,0,0.2,0h3.9C25.1,60.8,25.2,60.8,25.2,60.7L25.2,60.7zM30.5,60.7c0.1,0,0.1,-0.1,0.1,-0.1h0.1c0.1,-0.1,0.1,-0.1,0.1,-0.1l0.2,-1.5c0,-0.1,0,-0.1,-0.1,-0.1c-0.1,-0.1,-0.1,-0.1,-0.1,-0.1s-0.1,-0.1,-0.1,-0.1s-0.1,0,-0.2,0h-3.9c-0.1,0,-0.1,0,-0.2,0c-0.1,0,-0.1,0.1,-0.1,0.1c-0.1,0.1,-0.1,0.1,-0.1,0.1c-0.1,0.1,-0.1,0.1,-0.1,0.1l-0.2,1.5c0,0.1,0,0.1,0.1,0.1c0.1,0.1,0.1,0.1,0.1,0.1c0.1,0.1,0.1,0.1,0.1,0.1s0.1,0,0.2,0h3.9C30.3,60.8,30.5,60.8,30.5,60.7L30.5,60.7zM31.7,58.9c-0.1,0,-0.1,0.1,-0.1,0.1c-0.1,0.1,-0.1,0.1,-0.1,0.1c-0.1,0.1,-0.1,0.1,-0.1,0.1l-0.2,1.5c0,0.1,0,0.1,0.1,0.1c0.1,0.1,0.1,0.1,0.1,0.1c0.1,0.1,0.1,0.1,0.1,0.1c0.1,0,0.1,0,0.2,0h3.9c0.1,0,0.1,0,0.2,0c0.1,0,0.1,-0.1,0.1,-0.1c0.1,-0.1,0.1,-0.1,0.1,-0.1s0.1,-0.1,0.1,-0.1l0.1,-1.5c0,-0.1,0,-0.1,-0.1,-0.1c-0.1,-0.1,-0.1,-0.1,-0.1,-0.1c-0.1,-0.1,-0.1,-0.1,-0.1,-0.1c-0.1,0,-0.1,0,-0.2,0h-3.9C31.8,58.8,31.7,58.8,31.7,58.9L31.7,58.9zM36.9,58.9c-0.1,0,-0.1,0.1,-0.1,0.1c-0.1,0.1,-0.1,0.1,-0.1,0.1c-0.1,0.1,-0.1,0.1,-0.1,0.1l-0.1,1.5c0,0.1,0,0.1,0.1,0.1c0.1,0.1,0.1,0.1,0.1,0.1c0.1,0.1,0.1,0.1,0.1,0.1c0.1,0,0.1,0,0.2,0h3.9c0.1,0,0.1,0,0.2,0c0.1,0,0.1,-0.1,0.1,-0.1c0.1,-0.1,0.1,-0.1,0.1,-0.1s0.1,-0.1,0.1,-0.1l0.1,-1.5c0,-0.1,0,-0.1,-0.1,-0.1c-0.1,-0.1,-0.1,-0.1,-0.1,-0.1c-0.1,-0.1,-0.1,-0.1,-0.1,-0.1c-0.1,0,-0.1,0,-0.2,0h-3.9C37,58.8,36.9,58.8,36.9,58.9L36.9,58.9zM42.1,58.9c-0.1,0,-0.1,0.1,-0.1,0.1c-0.1,0.1,-0.1,0.1,-0.1,0.1c-0.1,0.1,-0.1,0.1,-0.1,0.1l-0.1,1.5c0,0.1,0,0.1,0.1,0.1c0.1,0.1,0.1,0.1,0.1,0.1c0.1,0.1,0.1,0.1,0.1,0.1c0.1,0,0.1,0,0.2,0h3.9c0.1,0,0.1,0,0.2,0c0.1,0,0.1,-0.1,0.1,-0.1c0.1,-0.1,0.1,-0.1,0.1,-0.1c0.1,-0.1,0.1,-0.1,0.1,-0.1l0.1,-1.5c0,-0.1,0,-0.1,-0.1,-0.1c-0.1,-0.1,-0.1,-0.1,-0.1,-0.1c-0.1,-0.1,-0.1,-0.1,-0.1,-0.1c-0.1,0,-0.1,0,-0.2,0h-3.9C42.2,58.8,42.2,58.8,42.1,58.9L42.1,58.9zM47.3,58.9c-0.1,0,-0.1,0.1,-0.1,0.1c-0.1,0.1,-0.1,0.1,-0.1,0.1c-0.1,0.1,-0.1,0.1,-0.1,0.1l-0.1,1.5c0,0.1,0,0.1,0.1,0.1c0.1,0.1,0.1,0.1,0.1,0.1c0.1,0.1,0.1,0.1,0.1,0.1c0.1,0,0.1,0,0.2,0h3.9c0.1,0,0.1,0,0.2,0s0.1,-0.1,0.1,-0.1c0.1,-0.1,0.1,-0.1,0.1,-0.1c0.1,-0.1,0.1,-0.1,0.1,-0.1l-0.1,-1.5c0,-0.1,0,-0.1,-0.1,-0.1c-0.1,-0.1,-0.1,-0.1,-0.1,-0.1c-0.1,-0.1,-0.1,-0.1,-0.1,-0.1c-0.1,0,-0.1,0,-0.2,0H47.3C47.4,58.8,47.3,58.8,47.3,58.9L47.3,58.9zM52.5,58.9c-0.1,0,-0.1,0.1,-0.1,0.1c-0.1,0.1,-0.1,0.1,-0.1,0.1c-0.1,0.1,-0.1,0.1,-0.1,0.1l0.1,1.5c0,0.1,0,0.1,0.1,0.1h0.1c0.1,0.1,0.1,0.1,0.1,0.1c0.1,0,0.1,0,0.2,0H56.5c0.1,0,0.1,0,0.2,0s0.1,-0.1,0.1,-0.1c0.1,-0.1,0.1,-0.1,0.1,-0.1c0.1,-0.1,0.1,-0.1,0.1,-0.1l-0.1,-1.5c0,-0.1,0,-0.1,-0.1,-0.1c-0.1,-0.1,-0.1,-0.1,-0.1,-0.1c-0.1,-0.1,-0.1,-0.1,-0.1,-0.1c-0.1,0,-0.1,0,-0.2,0h-3.9C52.5,58.8,52.5,58.8,52.5,58.9L52.5,58.9zM57.7,58.9c-0.1,0,-0.1,0.1,-0.1,0.1c-0.1,0.1,-0.1,0.1,-0.1,0.1c-0.1,0,-0.1,0.1,-0.1,0.1l0.1,1.5c0,0.1,0,0.1,0.1,0.1c0.1,0.1,0.1,0.1,0.1,0.1c0.1,0.1,0.1,0.1,0.1,0.1c0.1,0,0.1,0,0.2,0h3.9c0.1,0,0.1,0,0.2,0c0.1,0,0.1,-0.1,0.1,-0.1c0.1,-0.1,0.1,-0.1,0.1,-0.1c0.1,-0.1,0.1,-0.1,0.1,-0.1l-0.1,-1.5c0,-0.1,0,-0.1,-0.1,-0.1c-0.1,-0.1,-0.1,-0.1,-0.1,-0.1c-0.1,-0.1,-0.1,-0.1,-0.1,-0.1c-0.1,0,-0.1,0,-0.2,0h-3.9C57.7,58.8,57.7,58.8,57.7,58.9L57.7,58.9zM62.8,58.9c-0.1,0,-0.1,0.1,-0.1,0.1c-0.1,0.1,-0.1,0.1,-0.1,0.1c-0.1,0.1,-0.1,0.1,-0.1,0.1l0.1,1.5c0,0.1,0,0.1,0.1,0.1c0.1,0.1,0.1,0.1,0.1,0.1c0.1,0.1,0.1,0.1,0.1,0.1c0.1,0,0.1,0,0.2,0h3.9c0.1,0,0.1,0,0.2,0s0.1,-0.1,0.1,-0.1c0.1,-0.1,0.1,-0.1,0.1,-0.1c0.1,-0.1,0.1,-0.1,0.1,-0.1l-0.2,-1.5c0,-0.1,-0.1,-0.1,-0.1,-0.1c-0.1,-0.1,-0.1,-0.1,-0.1,-0.1c-0.1,-0.1,-0.1,-0.1,-0.1,-0.1c-0.1,0,-0.1,0,-0.2,0H63C63,58.8,62.9,58.8,62.8,58.9L62.8,58.9zM68.1,58.9c-0.1,0,-0.1,0.1,-0.1,0.1c-0.1,0.1,-0.1,0.1,-0.1,0.1c-0.1,0,-0.1,0.1,-0.1,0.1l0.2,1.5c0,0.1,0.1,0.1,0.1,0.1c0.1,0.1,0.1,0.1,0.1,0.1c0.1,0.1,0.1,0.1,0.1,0.1c0.1,0,0.1,0,0.2,0H72.3c0.1,0,0.1,0,0.2,0s0.1,-0.1,0.1,-0.1c0.1,-0.1,0.1,-0.1,0.1,-0.1c0.1,0,0.1,-0.1,0.1,-0.1l-0.2,-1.5c0,-0.1,-0.1,-0.1,-0.1,-0.1c-0.1,-0.1,-0.1,-0.1,-0.1,-0.1c-0.1,-0.1,-0.1,-0.1,-0.1,-0.1c-0.1,0,-0.1,0,-0.2,0h-3.9C68.2,58.8,68.1,58.8,68.1,58.9L68.1,58.9zM73.3,58.9c-0.1,0,-0.1,0.1,-0.1,0.1c-0.1,0.1,-0.1,0.1,-0.1,0.1c-0.1,0,-0.1,0.1,-0.1,0.1l0.2,1.5c0,0.1,0.1,0.1,0.1,0.1c0.1,0.1,0.1,0.1,0.1,0.1c0.1,0.1,0.1,0.1,0.1,0.1c0.1,0,0.1,0,0.2,0h3.9c0.1,0,0.1,0,0.2,0s0.1,-0.1,0.1,-0.1c0.1,-0.1,0.1,-0.1,0.1,-0.1c0.1,-0.1,0.1,-0.1,0.1,-0.1l-0.3,-1.5c0,-0.1,-0.1,-0.1,-0.1,-0.1c-0.1,-0.1,-0.1,-0.1,-0.1,-0.1c-0.1,-0.1,-0.1,-0.1,-0.1,-0.1c-0.1,0,-0.1,0,-0.2,0h-3.9C73.4,58.8,73.3,58.8,73.3,58.9L73.3,58.9zM85.5,58.9c-0.1,0,-0.1,0,-0.2,0h-6.7c-0.1,0,-0.1,0,-0.2,0s-0.1,0.1,-0.1,0.1c-0.1,0.1,-0.1,0.1,-0.1,0.1c-0.1,0.1,-0.1,0.1,-0.1,0.1l0.2,1.5c0,0.1,0.1,0.1,0.1,0.1c0.1,0.1,0.1,0.1,0.1,0.1c0.1,0.1,0.1,0.1,0.1,0.1c0.1,0,0.1,0,0.2,0h6.7c0.1,0,0.1,0,0.2,0s0.1,-0.1,0.1,-0.1c0.1,-0.1,0.1,-0.1,0.1,-0.1c0.1,-0.1,0.1,-0.1,0.1,-0.1l-0.3,-1.5c0,-0.1,-0.1,-0.1,-0.1,-0.1c-0.1,-0.1,-0.1,-0.1,-0.1,-0.1C85.5,58.9,85.5,58.9,85.5,58.9L85.5,58.9zM16.7,62.9c0.1,0.1,0.1,0.1,0.1,0.1c0.1,0,0.1,0,0.2,0h4c0.1,0,0.1,0,0.2,0s0.1,-0.1,0.1,-0.1c0.1,-0.1,0.1,-0.1,0.1,-0.1c0.1,-0.1,0.1,-0.1,0.1,-0.1l0.3,-1.5c0,-0.1,0,-0.1,-0.1,-0.1c-0.1,-0.1,-0.1,-0.1,-0.1,-0.1c-0.1,-0.1,-0.1,-0.1,-0.1,-0.1c-0.1,0,-0.1,0,-0.2,0H17.2c-0.1,0,-0.1,0,-0.2,0s-0.1,0.1,-0.1,0.1c-0.1,0.1,-0.1,0.1,-0.1,0.1c-0.1,0.1,-0.1,0.1,-0.1,0.1l-0.3,1.5c0,0.1,0,0.1,0.1,0.1S16.6,62.9,16.7,62.9L16.7,62.9zM7.4,62.9c0.1,0.1,0.1,0.1,0.1,0.1c0.1,0,0.1,0,0.2,0h7.7c0.1,0,0.1,0,0.2,0s0.1,-0.1,0.1,-0.1c0.1,-0.1,0.1,-0.1,0.1,-0.1c0.1,-0.1,0.1,-0.1,0.1,-0.1l0.3,-1.5c0,-0.1,0,-0.1,-0.1,-0.1c-0.1,-0.1,-0.1,-0.1,-0.1,-0.1c-0.1,-0.1,-0.1,-0.1,-0.1,-0.1c-0.1,0,-0.1,0,-0.2,0h-7.6c-0.1,0,-0.1,0,-0.2,0c-0.1,0,-0.1,0.1,-0.1,0.1c-0.1,0.1,-0.1,0.1,-0.1,0.1c-0.1,0.1,-0.1,0.1,-0.1,0.1l-0.4,1.5c0,0.1,0,0.1,0,0.1C7.4,62.9,7.4,62.9,7.4,62.9L7.4,62.9zM22,62.9c0.1,0.1,0.1,0.1,0.1,0.1c0.1,0,0.1,0,0.2,0h4c0.1,0,0.1,0,0.2,0c0.1,0,0.1,-0.1,0.1,-0.1c0.1,-0.1,0.1,-0.1,0.1,-0.1c0.1,-0.1,0.1,-0.1,0.1,-0.1l0.2,-1.5c0,-0.1,0,-0.1,-0.1,-0.1c-0.1,-0.1,-0.1,-0.1,-0.1,-0.1c-0.1,-0.1,-0.1,-0.1,-0.1,-0.1s-0.1,0,-0.2,0H22.5c-0.1,0,-0.1,0,-0.2,0c-0.1,0,-0.1,0.1,-0.1,0.1c-0.1,0.1,-0.1,0.1,-0.1,0.1c-0.1,0.1,-0.1,0.1,-0.1,0.1l-0.3,1.5c0,0.1,0,0.1,0.1,0.1C21.9,62.9,21.9,62.9,22,62.9zM27.3,62.9c0.1,0.1,0.1,0.1,0.1,0.1c0.1,0,0.1,0,0.2,0h4c0.1,0,0.1,0,0.2,0c0.1,0,0.1,-0.1,0.1,-0.1c0.1,-0.1,0.1,-0.1,0.1,-0.1c0.1,-0.1,0.1,-0.1,0.1,-0.1l0.2,-1.5c0,-0.1,0,-0.1,-0.1,-0.1c-0.1,-0.1,-0.1,-0.1,-0.1,-0.1c-0.1,-0.1,-0.1,-0.1,-0.1,-0.1c-0.1,0,-0.1,0,-0.2,0h-4c-0.1,0,-0.1,0,-0.2,0c-0.1,0,-0.1,0.1,-0.1,0.1c-0.1,0.1,-0.1,0.1,-0.1,0.1c-0.1,0.1,-0.1,0.1,-0.1,0.1l-0.2,1.5c0,0.1,0,0.1,0.1,0.1C27.2,62.9,27.3,62.9,27.3,62.9L27.3,62.9zM37,62.9c0.1,0,0.1,-0.1,0.1,-0.1c0.1,-0.1,0.1,-0.1,0.1,-0.1c0.1,-0.1,0.1,-0.1,0.1,-0.1l0.1,-1.5c0,-0.1,0,-0.1,-0.1,-0.1c-0.1,-0.1,-0.1,-0.1,-0.1,-0.1c-0.1,-0.1,-0.1,-0.1,-0.1,-0.1c-0.1,0,-0.1,0,-0.2,0h-4c-0.1,0,-0.1,0,-0.2,0s-0.1,0.1,-0.1,0.1c-0.1,0.1,-0.1,0.1,-0.1,0.1c-0.1,0.1,-0.1,0.1,-0.1,0.1l-0.2,1.5c0,0.1,0,0.1,0.1,0.1c0.1,0.1,0.1,0.1,0.1,0.1c0.1,0.1,0.1,0.1,0.1,0.1c0.1,0,0.1,0,0.2,0h4C36.9,63,37,63,37,62.9zM42.4,62.9c0.1,0,0.1,-0.1,0.1,-0.1c0.1,-0.1,0.1,-0.1,0.1,-0.1c0.1,-0.1,0.1,-0.1,0.1,-0.1l0.1,-1.5c0,-0.1,0,-0.1,-0.1,-0.1c-0.1,-0.1,-0.1,-0.1,-0.1,-0.1c-0.1,-0.1,-0.1,-0.1,-0.1,-0.1c-0.1,0,-0.1,0,-0.2,0h-4c-0.1,0,-0.1,0,-0.2,0c-0.1,0,-0.1,0.1,-0.1,0.1c-0.1,0.1,-0.1,0.1,-0.1,0.1c-0.1,0.1,-0.1,0.1,-0.1,0.1l-0.1,1.5c0,0.1,0,0.1,0.1,0.1c0.1,0.1,0.1,0.1,0.1,0.1c0.1,0.1,0.1,0.1,0.1,0.1c0.1,0,0.1,0,0.2,0H42.1C42.3,63,42.3,63,42.4,62.9L42.4,62.9zM47.7,62.9c0.1,0,0.1,-0.1,0.1,-0.1c0.1,-0.1,0.1,-0.1,0.1,-0.1c0.1,-0.1,0.1,-0.1,0.1,-0.1v-1.5c0,-0.1,0,-0.1,-0.1,-0.1c-0.1,-0.1,-0.1,-0.1,-0.1,-0.1c-0.1,-0.1,-0.1,-0.1,-0.1,-0.1c-0.1,0,-0.1,0,-0.2,0H43.5c-0.1,0,-0.1,0,-0.2,0c-0.1,0,-0.1,0.1,-0.1,0.1c-0.1,0.1,-0.1,0.1,-0.1,0.1c-0.1,0.1,-0.1,0.1,-0.1,0.1l-0.1,1.5c0,0.1,0,0.1,0.1,0.1c0.1,0.1,0.1,0.1,0.1,0.1c0.1,0.1,0.1,0.1,0.1,0.1c0.1,0,0.1,0,0.2,0h4C47.6,63,47.7,63,47.7,62.9L47.7,62.9zM53,62.9c0.1,0,0.1,-0.1,0.1,-0.1c0.1,-0.1,0.1,-0.1,0.1,-0.1c0.1,-0.1,0.1,-0.1,0.1,-0.1l-0.1,-1.5c0,-0.1,0,-0.1,-0.1,-0.1c-0.1,-0.1,-0.1,-0.1,-0.1,-0.1c-0.1,-0.1,-0.1,-0.1,-0.1,-0.1c-0.1,0,-0.1,0,-0.2,0h-4c-0.1,0,-0.1,0,-0.2,0s-0.1,0.1,-0.1,0.1c-0.1,0.1,-0.1,0.1,-0.1,0.1c-0.1,0.1,-0.1,0.1,-0.1,0.1v1.5c0,0.1,0,0.1,0.1,0.1c0.1,0.1,0.1,0.1,0.1,0.1c0.1,0.1,0.1,0.1,0.1,0.1c0.1,0,0.1,0,0.2,0h4C52.9,63,52.9,63,53,62.9L53,62.9zM58.3,62.9c0.1,0,0.1,-0.1,0.1,-0.1c0.1,-0.1,0.1,-0.1,0.1,-0.1c0.1,-0.1,0.1,-0.1,0.1,-0.1l-0.1,-1.5c0,-0.1,0,-0.1,-0.1,-0.1c-0.1,-0.1,-0.1,-0.1,-0.1,-0.1c-0.1,-0.1,-0.1,-0.1,-0.1,-0.1c-0.1,0,-0.1,0,-0.2,0h-4c-0.1,0,-0.1,0,-0.2,0s-0.1,0.1,-0.1,0.1c-0.1,0.1,-0.1,0.1,-0.1,0.1c-0.1,0.1,-0.1,0.1,-0.1,0.1l0.1,1.5c0,0.1,0,0.1,0.1,0.1c0.1,0.1,0.1,0.1,0.1,0.1c0.1,0.1,0.1,0.1,0.1,0.1c0.1,0,0.1,0,0.2,0h4C58.2,63,58.3,63,58.3,62.9L58.3,62.9zM63.6,62.9c0.1,0,0.1,-0.1,0.1,-0.1c0.1,-0.1,0.1,-0.1,0.1,-0.1c0.1,-0.1,0.1,-0.1,0.1,-0.1l-0.1,-1.5c0,-0.1,0,-0.1,-0.1,-0.1c-0.1,-0.1,-0.1,-0.1,-0.1,-0.1c-0.1,-0.1,-0.1,-0.1,-0.1,-0.1c-0.1,0,-0.1,0,-0.2,0h-4c-0.1,0,-0.1,0,-0.2,0s-0.1,0.1,-0.1,0.1c-0.1,0.1,-0.1,0.1,-0.1,0.1c-0.1,0.1,-0.1,0.1,-0.1,0.1l0.1,1.5c0,0.1,0,0.1,0.1,0.1c0.1,0.1,0.1,0.1,0.1,0.1c0.1,0.1,0.1,0.1,0.1,0.1c0.1,0,0.1,0,0.2,0H63.5C63.5,63,63.6,63,63.6,62.9zM68.9,62.9c0.1,0,0.1,-0.1,0.1,-0.1c0.1,-0.1,0.1,-0.1,0.1,-0.1c0.1,-0.1,0.1,-0.1,0.1,-0.1l-0.2,-1.5c0,-0.1,-0.1,-0.1,-0.1,-0.1c-0.1,-0.1,-0.1,-0.1,-0.1,-0.1c-0.1,-0.1,-0.1,-0.1,-0.1,-0.1c-0.1,0,-0.1,0,-0.2,0h-4c-0.1,0,-0.1,0,-0.2,0s-0.1,0.1,-0.1,0.1c-0.1,0.1,-0.1,0.1,-0.1,0.1c-0.1,0.1,-0.1,0.1,-0.1,0.1l0.1,1.5c0,0.1,0.1,0.1,0.1,0.1c0.1,0.1,0.1,0.1,0.1,0.1c0.1,0.1,0.1,0.1,0.1,0.1c0.1,0,0.1,0,0.2,0h4C68.9,63,68.9,63,68.9,62.9L68.9,62.9zM74.3,62.9c0.1,0,0.1,-0.1,0.1,-0.1c0.1,-0.1,0.1,-0.1,0.1,-0.1c0.1,-0.1,0.1,-0.1,0.1,-0.1l-0.2,-1.5c0,-0.1,-0.1,-0.1,-0.1,-0.1c-0.1,-0.1,-0.1,-0.1,-0.1,-0.1c-0.1,-0.1,-0.1,-0.1,-0.1,-0.1c-0.1,0,-0.1,0,-0.2,0h-4c-0.1,0,-0.1,0,-0.2,0s-0.1,0.1,-0.1,0.1c-0.1,0.1,-0.1,0.1,-0.1,0.1c-0.1,0.1,-0.1,0.1,-0.1,0.1l0.2,1.5c0,0.1,0.1,0.1,0.1,0.1c0.1,0.1,0.1,0.1,0.1,0.1c0.1,0.1,0.1,0.1,0.1,0.1c0.1,0,0.1,0,0.2,0H74.1C74.2,63,74.2,63,74.3,62.9L74.3,62.9zM86.4,62.9c0.1,0,0.1,-0.1,0.1,-0.1c0.1,-0.1,0.1,-0.1,0.1,-0.1c0.1,-0.1,0.1,-0.1,0.1,-0.1l-0.4,-1.5c0,-0.1,-0.1,-0.1,-0.1,-0.1c-0.1,-0.1,-0.1,-0.1,-0.1,-0.1c-0.1,-0.1,-0.1,-0.1,-0.1,-0.1c-0.1,0,-0.1,0,-0.2,0h-10.6c-0.1,0,-0.1,0,-0.2,0s-0.1,0.1,-0.1,0.1c-0.1,0.1,-0.1,0.1,-0.1,0.1c-0.1,0.1,-0.1,0.1,-0.1,0.1l0.2,1.5c0,0.1,0.1,0.1,0.1,0.1c0.1,0.1,0.1,0.1,0.1,0.1c0.1,0.1,0.1,0.1,0.1,0.1c0.1,0,0.1,0,0.2,0h10.7C86.2,63,86.3,63,86.4,62.9L86.4,62.9zM24.4,63.4c-0.1,-0.1,-0.1,-0.1,-0.1,-0.1c-0.1,-0.1,-0.1,-0.1,-0.1,-0.1s-0.1,0,-0.2,0h-4c-0.1,0,-0.1,0,-0.2,0s-0.1,0.1,-0.1,0.1c-0.1,0.1,-0.1,0.1,-0.1,0.1c-0.1,0,-0.1,0.1,-0.1,0.1l-0.3,1.6c0,0.1,0,0.1,0.1,0.1c0.1,0.1,0.1,0.1,0.1,0.1c0.1,0.1,0.1,0.1,0.1,0.1c0.1,0,0.1,0,0.2,0h4.1c0.1,0,0.1,0,0.2,0c0.1,0,0.1,-0.1,0.1,-0.1c0.1,-0.1,0.1,-0.1,0.1,-0.1c0.1,-0.1,0.1,-0.1,0.1,-0.1l0.2,-1.6C24.4,63.4,24.4,63.4,24.4,63.4zM18.7,65l0.3,-1.6c0,-0.1,0,-0.1,-0.1,-0.1c-0.1,-0.1,-0.1,-0.1,-0.1,-0.1c-0.1,-0.1,-0.1,-0.1,-0.1,-0.1c-0.1,0,-0.1,0,-0.2,0H7.7c-0.1,0,-0.1,0,-0.2,0s-0.1,0.1,-0.2,0.1c-0.1,0.1,-0.1,0.1,-0.1,0.1c-0.1,0.1,-0.1,0.1,-0.1,0.1l-0.4,1.6c0,0.1,0,0.1,0,0.1c0,0.1,0.1,0.1,0.1,0.1c0.1,0.1,0.1,0.1,0.1,0.1s0.1,0,0.2,0h11c0.1,0,0.1,0,0.2,0s0.1,-0.1,0.2,-0.1c0.1,-0.1,0.1,-0.1,0.1,-0.1C18.7,65.1,18.7,65,18.7,65L18.7,65zM29.7,63.3c-0.1,-0.1,-0.1,-0.1,-0.1,-0.1c-0.1,0,-0.1,0,-0.2,0h-4c-0.1,0,-0.1,0,-0.2,0c-0.1,0,-0.1,0.1,-0.1,0.1c-0.1,0.1,-0.1,0.1,-0.1,0.1c-0.1,0.1,-0.1,0.1,-0.1,0.1l-0.2,1.6c0,0.1,0,0.1,0.1,0.1c0.1,0.1,0.1,0.1,0.1,0.1c0.1,0.1,0.1,0.1,0.1,0.1c0.1,0,0.1,0,0.2,0h4.1c0.1,0,0.1,0,0.2,0c0.1,0,0.1,-0.1,0.1,-0.1c0.1,-0.1,0.1,-0.1,0.1,-0.1c0.1,-0.1,0.1,-0.1,0.1,-0.1l0.2,-1.6c0,-0.1,0,-0.1,-0.1,-0.1C29.7,63.3,29.7,63.3,29.7,63.3L29.7,63.3zM23.6,65.6c-0.1,-0.1,-0.1,-0.1,-0.1,-0.1c-0.1,0,-0.1,0,-0.2,0h-4c-0.1,0,-0.1,0,-0.2,0c-0.1,0,-0.1,0.1,-0.2,0.1c-0.1,0.1,-0.1,0.1,-0.1,0.1c-0.1,0.1,-0.1,0.1,-0.1,0.1l-0.3,1.7c0,0.1,0,0.1,0.1,0.1c0.1,0.1,0.1,0.1,0.1,0.1c0.1,0.1,0.1,0.1,0.1,0.1c0.1,0,0.1,0,0.2,0h4.1c0.1,0,0.1,0,0.2,0c0.1,0,0.1,-0.1,0.2,-0.1c0.1,-0.1,0.1,-0.1,0.1,-0.1c0.1,-0.1,0.1,-0.1,0.1,-0.1l0.3,-1.7c0,-0.1,0,-0.1,-0.1,-0.1C23.7,65.6,23.6,65.6,23.6,65.6L23.6,65.6zM17.9,65.6c-0.1,-0.1,-0.1,-0.1,-0.1,-0.1c-0.1,0,-0.1,0,-0.2,0H13.6c-0.1,0,-0.1,0,-0.2,0c-0.1,0,-0.1,0.1,-0.2,0.1c-0.1,0.1,-0.1,0.1,-0.1,0.1c-0.1,0.1,-0.1,0.1,-0.1,0.1l-0.3,1.7c0,0.1,0,0.1,0.1,0.1c0.1,0.1,0.1,0.1,0.1,0.1c0.1,0.1,0.1,0.1,0.1,0.1c0.1,0,0.1,0,0.2,0h4.1c0.1,0,0.1,0,0.2,0c0.1,0,0.1,-0.1,0.2,-0.1c0.1,-0.1,0.1,-0.1,0.1,-0.1c0.1,-0.1,0.1,-0.1,0.1,-0.1l0.3,-1.7c0,-0.1,0,-0.1,-0.1,-0.1C18,65.6,18,65.6,17.9,65.6zM29.2,65.6c-0.1,-0.1,-0.1,-0.1,-0.1,-0.1c-0.1,0,-0.1,0,-0.2,0h-4.1c-0.1,0,-0.1,0,-0.2,0c-0.1,0,-0.1,0.1,-0.1,0.1c-0.1,0.1,-0.1,0.1,-0.1,0.1c-0.1,0.1,-0.1,0.1,-0.1,0.1l-0.2,1.7c0,0.1,0,0.1,0.1,0.1c0.1,0.1,0.1,0.1,0.1,0.1c0.1,0.1,0.1,0.1,0.1,0.1c0.1,0,0.1,0,0.2,0h4.1c0.1,0,0.1,0,0.2,0c0.1,0,0.1,-0.1,0.1,-0.1c0.1,-0.1,0.1,-0.1,0.1,-0.1c0.1,-0.1,0.1,-0.1,0.1,-0.1l0.2,-1.7c0,-0.1,0,-0.1,-0.1,-0.1C29.3,65.6,29.3,65.6,29.2,65.6L29.2,65.6zM30.3,65.1c0.1,0.1,0.1,0.1,0.1,0.1c0.1,0,0.1,0,0.2,0h4c0.1,0,0.1,0,0.2,0c0.1,0,0.1,-0.1,0.1,-0.1c0.1,-0.1,0.1,-0.1,0.1,-0.1c0.1,-0.1,0.1,-0.1,0.1,-0.1l0.1,-1.6c0,-0.1,0,-0.1,-0.1,-0.1c-0.1,-0.1,-0.1,-0.1,-0.1,-0.1c-0.1,-0.1,-0.1,-0.1,-0.1,-0.1c-0.1,0,-0.1,0,-0.2,0h-4c-0.1,0,-0.1,0,-0.2,0c-0.1,0,-0.1,0.1,-0.1,0.1c-0.1,0.1,-0.1,0.1,-0.1,0.1c-0.1,0.1,-0.1,0.1,-0.1,0.1l-0.2,1.6c0,0.1,0,0.1,0.1,0.1C30.1,65.1,30.2,65.1,30.3,65.1L30.3,65.1zM35.6,65.1c0.1,0.1,0.1,0.1,0.1,0.1c0.1,0,0.1,0,0.2,0h4.1c0.1,0,0.1,0,0.2,0c0.1,0,0.1,-0.1,0.1,-0.1c0.1,-0.1,0.1,-0.1,0.1,-0.1c0.1,-0.1,0.1,-0.1,0.1,-0.1l0.1,-1.6c0,-0.1,0,-0.1,-0.1,-0.1c-0.1,-0.1,-0.1,-0.1,-0.1,-0.1s-0.1,-0.1,-0.1,-0.1c-0.1,0,-0.1,0,-0.2,0h-4c-0.1,0,-0.1,0,-0.2,0c-0.1,0,-0.1,0.1,-0.1,0.1c-0.1,0.1,-0.1,0.1,-0.1,0.1c-0.1,0.1,-0.1,0.1,-0.1,0.1l-0.1,1.6c0,0.1,0,0.1,0.1,0.1C35.6,65.1,35.6,65.1,35.6,65.1L35.6,65.1zM41,65.1c0.1,0.1,0.1,0.1,0.1,0.1c0.1,0,0.1,0,0.2,0h4.1c0.1,0,0.1,0,0.2,0s0.1,-0.1,0.1,-0.1c0.1,-0.1,0.1,-0.1,0.1,-0.1c0.1,-0.1,0.1,-0.1,0.1,-0.1l0.1,-1.6c0,-0.1,0,-0.1,-0.1,-0.1c-0.1,-0.1,-0.1,-0.1,-0.1,-0.1c-0.1,-0.1,-0.1,-0.1,-0.1,-0.1c-0.1,0,-0.1,0,-0.2,0h-4c-0.1,0,-0.1,0,-0.2,0c-0.1,0,-0.1,0.1,-0.1,0.1c-0.1,0.1,-0.1,0.1,-0.1,0.1c-0.1,0.1,-0.1,0.1,-0.1,0.1l-0.1,1.6c0,0.1,0,0.1,0.1,0.1C40.9,65.1,40.9,65.1,41,65.1zM46.4,65.1c0.1,0.1,0.1,0.1,0.1,0.1c0.1,0,0.1,0,0.2,0h4.1c0.1,0,0.1,0,0.2,0s0.1,-0.1,0.1,-0.1c0.1,-0.1,0.1,-0.1,0.1,-0.1c0.1,-0.1,0.1,-0.1,0.1,-0.1l-0.1,-1.6c0,-0.1,0,-0.1,-0.1,-0.1c-0.1,-0.1,-0.1,-0.1,-0.1,-0.1c-0.1,-0.1,-0.1,-0.1,-0.1,-0.1c-0.1,0,-0.1,0,-0.2,0h-4c-0.1,0,-0.1,0,-0.2,0s-0.1,0.1,-0.1,0.1c-0.1,0.1,-0.1,0.1,-0.1,0.1c-0.1,0.1,-0.1,0.1,-0.1,0.1l-0.1,1.6c0,0.1,0,0.1,0.1,0.1S46.3,65.1,46.4,65.1L46.4,65.1zM51.7,65.1c0.1,0.1,0.1,0.1,0.1,0.1c0,0.1,0.1,0.1,0.1,0.1c0.1,0,0.1,0,0.2,0h4.1c0.1,0,0.1,0,0.2,0s0.1,-0.1,0.1,-0.1c0.1,-0.1,0.1,-0.1,0.1,-0.1c0.1,-0.1,0.1,-0.1,0.1,-0.1l-0.1,-1.6c0,-0.1,0,-0.1,-0.1,-0.1c-0.1,-0.1,-0.1,-0.1,-0.1,-0.1c-0.1,-0.1,-0.1,-0.1,-0.1,-0.1c-0.1,0,-0.1,0,-0.2,0h-4c-0.1,0,-0.1,0,-0.2,0s-0.1,0.1,-0.1,0.1c-0.1,0.1,-0.1,0.1,-0.1,0.1c-0.1,0.1,-0.1,0.1,-0.1,0.1l0.1,1.6C51.6,65,51.7,65.1,51.7,65.1L51.7,65.1zM57.1,65.1c0.1,0.1,0.1,0.1,0.1,0.1c0.1,0.1,0.1,0.1,0.1,0.1c0.1,0,0.1,0,0.2,0h4c0.1,0,0.1,0,0.2,0s0.1,-0.1,0.1,-0.1c0.1,-0.1,0.1,-0.1,0.1,-0.1c0.1,-0.1,0.1,-0.1,0.1,-0.1l-0.1,-1.6c0,-0.1,0,-0.1,-0.1,-0.1c-0.1,-0.1,-0.1,-0.1,-0.1,-0.1c-0.1,-0.1,-0.1,-0.1,-0.1,-0.1c-0.1,0,-0.1,0,-0.2,0h-4c-0.1,0,-0.1,0,-0.2,0s-0.1,0.1,-0.1,0.1c-0.1,0.1,-0.1,0.1,-0.1,0.1c-0.1,0.1,-0.1,0.1,-0.1,0.1l0.1,1.6C57,65,57,65.1,57.1,65.1L57.1,65.1L57.1,65.1zM62.4,65.1c0.1,0.1,0.1,0.1,0.1,0.1c0.1,0.1,0.1,0.1,0.1,0.1c0.1,0,0.1,0,0.2,0h4.1c0.1,0,0.1,0,0.2,0s0.1,-0.1,0.1,-0.1c0.1,-0.1,0.1,-0.1,0.1,-0.1c0.1,-0.1,0.1,-0.1,0.1,-0.1l-0.2,-1.6c0,-0.1,-0.1,-0.1,-0.1,-0.1c-0.1,-0.1,-0.1,-0.1,-0.1,-0.1c-0.1,-0.1,-0.1,-0.1,-0.1,-0.1c-0.1,0,-0.1,0,-0.2,0h-4c-0.1,0,-0.1,0,-0.2,0s-0.1,0.1,-0.1,0.1s-0.1,0.1,-0.1,0.1c-0.1,0.1,-0.1,0.1,-0.1,0.1l0.1,1.6C62.4,65,62.4,65.1,62.4,65.1zM67.8,65.1c0.1,0.1,0.1,0.1,0.1,0.1c0.1,0.1,0.1,0.1,0.1,0.1c0.1,0,0.1,0,0.2,0h4c0.1,0,0.1,0,0.2,0s0.1,-0.1,0.1,-0.1c0.1,-0.1,0.1,-0.1,0.1,-0.1c0.1,-0.1,0.1,-0.1,0.1,-0.1l-0.2,-1.6c0,-0.1,-0.1,-0.1,-0.1,-0.1c-0.1,-0.1,-0.1,-0.1,-0.1,-0.1c-0.1,-0.1,-0.1,-0.1,-0.1,-0.1c-0.1,0,-0.1,0,-0.2,0h-4c-0.1,0,-0.1,0,-0.2,0s-0.1,0.1,-0.1,0.1c-0.1,0.1,-0.1,0.1,-0.1,0.1c-0.1,0.1,-0.1,0.1,-0.1,0.1l0.2,1.6C67.8,65,67.8,65.1,67.8,65.1L67.8,65.1zM73.3,65.1c0.1,0.1,0.1,0.1,0.1,0.1c0.1,0.1,0.1,0.1,0.1,0.1c0.1,0,0.1,0,0.2,0h7.4c0.1,0,0.1,0,0.2,0s0.1,-0.1,0.1,-0.1c0.1,0,0.1,-0.1,0.1,-0.1c0.1,-0.1,0.1,-0.1,0.1,-0.1l-0.3,-1.6c0,-0.1,-0.1,-0.1,-0.1,-0.1c-0.1,-0.1,-0.1,-0.1,-0.1,-0.1c-0.1,-0.1,-0.1,-0.1,-0.1,-0.1c-0.1,0,-0.1,0,-0.2,0h-7.4c-0.1,0,-0.1,0,-0.2,0s-0.1,0.1,-0.1,0.1c-0.1,0.1,-0.1,0.1,-0.1,0.1c-0.1,0.1,-0.1,0.1,-0.1,0.1l0.2,1.6C73.2,65,73.2,65.1,73.3,65.1L73.3,65.1zM90.7,58.8h-3.9c-0.1,0,-0.1,0,-0.2,0s-0.1,0.1,-0.1,0.1c-0.1,0.1,-0.1,0.1,-0.1,0.1c-0.1,0.1,-0.1,0.1,-0.1,0.1l0.3,1.5c0,0.1,0.1,0.1,0.1,0.1c0.1,0.1,0.1,0.1,0.1,0.1c0.1,0.1,0.1,0.1,0.1,0.1c0.1,0,0.1,0,0.2,0h3.9c0.1,0,0.1,0,0.2,0c0.1,0,0.1,-0.1,0.1,-0.1c0.1,-0.1,0.1,-0.1,0.1,-0.1c0,-0.1,0.1,-0.1,0,-0.1l-0.4,-1.5c0,-0.1,-0.1,-0.1,-0.1,-0.1c-0.1,-0.1,-0.1,-0.1,-0.1,-0.1c-0.1,-0.1,-0.1,-0.1,-0.1,-0.1S90.7,58.8,90.7,58.8L90.7,58.8zM91.3,61.1c-0.1,0,-0.1,0,-0.2,0h-4c-0.1,0,-0.1,0,-0.2,0c-0.1,0,-0.1,0.1,-0.1,0.1c-0.1,0.1,-0.1,0.1,-0.1,0.1c-0.1,0.1,-0.1,0.1,-0.1,0.1l0.3,1.5c0,0.1,0.1,0.1,0.1,0.1c0.1,0.1,0.1,0.1,0.1,0.1c0.1,0.1,0.1,0.1,0.2,0.1s0.1,0,0.2,0h4c0.1,0,0.1,0,0.2,0c0.1,0,0.1,-0.1,0.1,-0.1c0.1,-0.1,0.1,-0.1,0.1,-0.1c0.1,-0.1,0.1,-0.1,0,-0.1l-0.4,-1.5c0,-0.1,-0.1,-0.1,-0.1,-0.1c-0.1,-0.1,-0.1,-0.1,-0.1,-0.1C91.3,61.1,91.3,61.1,91.3,61.1L91.3,61.1zM88.1,65.2H92.1c0.1,0,0.1,0,0.2,0c0.1,0,0.1,-0.1,0.1,-0.1c0.1,-0.1,0.1,-0.1,0.1,-0.1c0.1,-0.1,0.1,-0.1,0,-0.1l-0.4,-1.6c0,-0.1,-0.1,-0.1,-0.1,-0.1c-0.1,-0.1,-0.1,-0.1,-0.1,-0.1c-0.1,-0.1,-0.1,-0.1,-0.2,-0.1c-0.1,0,-0.1,0,-0.2,0H87.6c-0.1,0,-0.1,0,-0.2,0s-0.1,0.1,-0.1,0.1c-0.1,0.1,-0.1,0.1,-0.1,0.1c-0.1,0.1,-0.1,0.1,-0.1,0.1l0.3,1.6c0,0.1,0.1,0.1,0.1,0.1c0.1,0.1,0.1,0.1,0.1,0.1c0.1,0.1,0.1,0.1,0.2,0.1S88,65.2,88.1,65.2L88.1,65.2zM93,67.3l-0.4,-1.7c0,-0.1,-0.1,-0.1,-0.1,-0.1c-0.1,-0.1,-0.1,-0.1,-0.1,-0.1c-0.1,-0.1,-0.1,-0.1,-0.2,-0.1c-0.1,0,-0.1,0,-0.2,0h-4.1c-0.1,0,-0.1,0,-0.2,0s-0.1,0.1,-0.1,0.1c-0.1,0.1,-0.1,0.1,-0.1,0.1c-0.1,0.1,-0.1,0.1,-0.1,0.1l0.3,1.7c0,0.1,0.1,0.1,0.1,0.1c0.1,0.1,0.1,0.1,0.1,0.1c0.1,0.1,0.1,0.1,0.2,0.1s0.1,0,0.2,0H92.6c0.1,0,0.1,0,0.2,0c0.1,0,0.1,-0.1,0.1,-0.1c0.1,-0.1,0.1,-0.1,0.1,-0.1C93,67.4,93,67.4,93,67.3zM82.4,65.2c0.1,0,0.1,0,0.2,0h4c0.1,0,0.1,0,0.2,0s0.1,-0.1,0.1,-0.1c0.1,-0.1,0.1,-0.1,0.1,-0.1c0.1,-0.1,0.1,-0.1,0.1,-0.1l-0.3,-1.6c0,-0.1,-0.1,-0.1,-0.1,-0.1c-0.1,-0.1,-0.1,-0.1,-0.1,-0.1c-0.1,-0.1,-0.1,-0.1,-0.1,-0.1c-0.1,0,-0.1,0,-0.2,0h-4c-0.1,0,-0.1,0,-0.2,0s-0.1,0.1,-0.1,0.1c-0.1,0.1,-0.1,0.1,-0.1,0.1c-0.1,0.1,-0.1,0.1,-0.1,0.1l0.3,1.6c0,0.1,0.1,0.1,0.1,0.1c0.1,0.1,0.1,0.1,0.1,0.1C82.3,65.1,82.4,65.1,82.4,65.2zM87.1,65.6c-0.1,-0.1,-0.1,-0.1,-0.1,-0.1c-0.1,-0.1,-0.1,-0.1,-0.2,-0.1c-0.1,0,-0.1,0,-0.2,0h-4c-0.1,0,-0.1,0,-0.2,0s-0.1,0.1,-0.1,0.1c-0.1,0.1,-0.1,0.1,-0.1,0.1c-0.1,0.1,-0.1,0.1,-0.1,0.1l0.3,1.7c0,0.1,0.1,0.1,0.1,0.1c0.1,0.1,0.1,0.1,0.1,0.1c0.1,0.1,0.1,0.1,0.2,0.1s0.1,0,0.2,0h4.1c0.1,0,0.1,0,0.2,0s0.1,-0.1,0.1,-0.1c0.1,-0.1,0.1,-0.1,0.1,-0.1c0.1,-0.1,0.1,-0.1,0.1,-0.1l-0.3,-1.7C87.1,65.6,87.1,65.6,87.1,65.6L87.1,65.6zM81.5,65.6c-0.1,-0.1,-0.1,-0.1,-0.1,-0.1c-0.1,-0.1,-0.1,-0.1,-0.2,-0.1s-0.1,0,-0.2,0h-4c-0.1,0,-0.1,0,-0.2,0s-0.1,0.1,-0.1,0.1c-0.1,0.1,-0.1,0.1,-0.1,0.1c-0.1,0.1,-0.1,0.1,-0.1,0.1l0.2,1.7c0,0.1,0.1,0.1,0.1,0.1c0.1,0.1,0.1,0.1,0.1,0.1c0.1,0.1,0.1,0.1,0.2,0.1s0.1,0,0.2,0h4.1c0.1,0,0.1,0,0.2,0s0.1,-0.1,0.1,-0.1c0.1,-0.1,0.1,-0.1,0.1,-0.1c0.1,0,0.1,-0.1,0.1,-0.1l-0.3,-1.7C81.5,65.6,81.5,65.6,81.5,65.6L81.5,65.6L81.5,65.6zM69.2,65.6c-0.1,-0.1,-0.1,-0.1,-0.1,-0.1c-0.1,-0.1,-0.1,-0.1,-0.1,-0.1c-0.1,0,-0.1,0,-0.2,0h-4.1c-0.1,0,-0.1,0,-0.2,0s-0.1,0.1,-0.1,0.1c-0.1,0.1,-0.1,0.1,-0.1,0.1c-0.1,0.1,-0.1,0.1,-0.1,0.1l0.2,1.7c0,0.1,0.1,0.1,0.1,0.1c0.1,0.1,0.1,0.1,0.1,0.1c0.1,0.1,0.1,0.1,0.1,0.1c0.1,0,0.1,0,0.2,0H69c0.1,0,0.1,0,0.2,0s0.1,-0.1,0.1,-0.1c0.1,-0.1,0.1,-0.1,0.1,-0.1c0.1,-0.1,0.1,-0.1,0.1,-0.1l-0.2,-1.7C69.3,65.6,69.3,65.6,69.2,65.6L69.2,65.6zM63.7,65.6c-0.1,-0.1,-0.1,-0.1,-0.1,-0.1c-0.1,-0.1,-0.1,-0.1,-0.1,-0.1c-0.1,0,-0.1,0,-0.2,0h-4.1c-0.1,0,-0.1,0,-0.2,0s-0.1,0.1,-0.1,0.1c-0.1,0.1,-0.1,0.1,-0.1,0.1c-0.1,0.1,-0.1,0.1,-0.1,0.1l0.1,1.7c0,0.1,0,0.1,0.1,0.1c0.1,0.1,0.1,0.1,0.1,0.1c0.1,0.1,0.1,0.1,0.1,0.1c0.1,0,0.1,0,0.2,0h4.1c0.1,0,0.1,0,0.2,0s0.1,-0.1,0.1,-0.1c0.1,-0.1,0.1,-0.1,0.1,-0.1c0.1,-0.1,0.1,-0.1,0.1,-0.1l-0.1,-1.7C63.7,65.6,63.7,65.6,63.7,65.6L63.7,65.6zM58,65.6c-0.1,-0.1,-0.1,-0.1,-0.1,-0.1c-0.1,-0.1,-0.1,-0.1,-0.1,-0.1c-0.1,0,-0.1,0,-0.2,0H30.5c-0.1,0,-0.1,0,-0.2,0c-0.1,0,-0.1,0.1,-0.1,0.1c-0.1,0.1,-0.1,0.1,-0.1,0.1c-0.1,0.1,-0.1,0.1,-0.1,0.1l-0.2,1.7c0,0.1,0,0.1,0.1,0.1c0.1,0.1,0.1,0.1,0.1,0.1c0.1,0.1,0.1,0.1,0.1,0.1c0.1,0,0.1,0,0.2,0h27.5c0.1,0,0.1,0,0.2,0s0.1,-0.1,0.1,-0.1c0.1,-0.1,0.1,-0.1,0.1,-0.1c0.1,-0.1,0.1,-0.1,0.1,-0.1l-0.1,-1.7C58.1,65.6,58.1,65.6,58,65.6L58,65.6zM12.3,65.6c-0.1,-0.1,-0.1,-0.1,-0.1,-0.1c-0.1,0,-0.1,0,-0.2,0H7c-0.1,0,-0.1,0,-0.2,0c-0.1,0,-0.1,0.1,-0.2,0.1c-0.1,0.1,-0.1,0.1,-0.1,0.1c-0.1,0.1,-0.1,0.1,-0.1,0.1l-0.4,1.7c0,0.1,0,0.1,0,0.1c0,0.1,0.1,0.1,0.1,0.1s0.1,0.1,0.1,0.1c0.1,0,0.1,0,0.2,0h5.1c0.1,0,0.1,0,0.2,0s0.1,-0.1,0.2,-0.1c0.1,-0.1,0.1,-0.1,0.1,-0.1c0.1,-0.1,0.1,-0.1,0.1,-0.1l0.3,-1.7c0,-0.1,0,-0.1,-0.1,-0.1C12.4,65.6,12.3,65.6,12.3,65.6L12.3,65.6zM75.9,65.6c-0.1,-0.1,-0.1,-0.1,-0.1,-0.1c-0.1,-0.1,-0.1,-0.1,-0.1,-0.1c-0.1,0,-0.1,0,-0.2,0h-5c-0.1,0,-0.1,0,-0.2,0c-0.1,0,-0.1,0.1,-0.1,0.1c-0.1,0.1,-0.1,0.1,-0.1,0.1c-0.1,0.1,-0.1,0.1,-0.1,0.1l0.2,1.7c0,0.1,0.1,0.1,0.1,0.1c0.1,0.1,0.1,0.1,0.1,0.1c0.1,0.1,0.1,0.1,0.1,0.1c0.1,0,0.1,0,0.2,0h5.1c0.1,0,0.1,0,0.2,0s0.1,-0.1,0.1,-0.1c0.1,-0.1,0.1,-0.1,0.1,-0.1c0.1,-0.1,0.1,-0.1,0.1,-0.1l-0.2,-1.7C75.9,65.6,75.9,65.6,75.9,65.6L75.9,65.6zM8.9,56.5c0.1,0,0.1,0.1,0.1,0.1s0.1,0,0.2,0h3.6c0.1,0,0.1,0,0.2,0s0.1,-0.1,0.1,-0.1c0.1,0,0.1,-0.1,0.1,-0.1c0.1,-0.1,0.1,-0.1,0.1,-0.1l0.2,-0.9c0,-0.1,0,-0.1,0,-0.1c0,-0.1,-0.1,-0.1,-0.1,-0.1c-0.1,0,-0.1,-0.1,-0.1,-0.1c-0.1,0,-0.1,0,-0.2,0H9.5c-0.1,0,-0.1,0,-0.2,0s-0.1,0.1,-0.1,0.1c-0.1,0,-0.1,0.1,-0.1,0.1c-0.1,0.1,-0.1,0.1,-0.1,0.1l-0.2,0.9c0,0.1,0,0.1,0,0.1C8.9,56.5,8.9,56.5,8.9,56.5L8.9,56.5zM13.8,56.5c0.1,0,0.1,0.1,0.1,0.1c0.1,0,0.1,0,0.2,0h3.6c0.1,0,0.1,0,0.2,0s0.1,-0.1,0.1,-0.1s0.1,-0.1,0.1,-0.1c0.1,-0.1,0.1,-0.1,0.1,-0.1l0.2,-0.9c0,-0.1,0,-0.1,-0.1,-0.1c0,-0.1,-0.1,-0.1,-0.1,-0.1c-0.1,0,-0.1,-0.1,-0.1,-0.1c-0.1,0,-0.1,0,-0.2,0H14.3c-0.1,0,-0.1,0,-0.2,0c-0.1,0,-0.1,0.1,-0.1,0.1s-0.1,0.1,-0.1,0.1c-0.1,0.1,-0.1,0.1,-0.1,0.1l-0.2,0.9c0,0.1,0,0.1,0,0.1C13.7,56.5,13.7,56.5,13.8,56.5L13.8,56.5zM18.6,56.5c0.1,0,0.1,0.1,0.1,0.1c0.1,0,0.1,0,0.2,0h3.6c0.1,0,0.1,0,0.2,0s0.1,-0.1,0.1,-0.1s0.1,-0.1,0.1,-0.1c0.1,-0.1,0.1,-0.1,0.1,-0.1l0.1,-0.9c0,-0.1,0,-0.1,-0.1,-0.1c0,-0.1,-0.1,-0.1,-0.1,-0.1c-0.1,0,-0.1,-0.1,-0.1,-0.1s-0.1,0,-0.2,0h-3.5c-0.1,0,-0.1,0,-0.2,0s-0.1,0.1,-0.1,0.1s-0.1,0.1,-0.1,0.1c-0.1,0.1,-0.1,0.1,-0.1,0.1l-0.2,0.9c0,0.1,0,0.1,0.1,0.1C18.5,56.5,18.6,56.5,18.6,56.5L18.6,56.5zM23.4,56.5c0.1,0,0.1,0.1,0.1,0.1s0.1,0,0.2,0h3.6c0.1,0,0.1,0,0.2,0c0.1,0,0.1,-0.1,0.1,-0.1c0.1,0,0.1,-0.1,0.1,-0.1c0.1,-0.1,0.1,-0.1,0.1,-0.1l0.1,-0.9c0,-0.1,0,-0.1,-0.1,-0.1c-0.1,-0.1,-0.1,-0.1,-0.1,-0.1c-0.1,0,-0.1,-0.1,-0.1,-0.1s-0.1,0,-0.2,0h-3.5c-0.1,0,-0.1,0,-0.2,0s-0.1,0.1,-0.1,0.1s-0.1,0.1,-0.1,0.1c-0.1,0.1,-0.1,0.1,-0.1,0.1l-0.1,0.9c0,0.1,0,0.1,0.1,0.1C23.3,56.5,23.4,56.5,23.4,56.5L23.4,56.5L23.4,56.5zM28.2,56.5c0.1,0,0.1,0.1,0.1,0.1s0.1,0,0.2,0h3.6c0.1,0,0.1,0,0.2,0c0.1,0,0.1,-0.1,0.1,-0.1s0.1,-0.1,0.1,-0.1c0.1,-0.1,0.1,-0.1,0.1,-0.1l0.1,-0.9c0,-0.1,0,-0.1,-0.1,-0.1c-0.1,-0.1,-0.1,-0.1,-0.1,-0.1c-0.1,0,-0.1,-0.1,-0.1,-0.1s-0.1,0,-0.2,0h-3.5c-0.1,0,-0.1,0,-0.2,0c-0.1,0,-0.1,0.1,-0.1,0.1c-0.1,0,-0.1,0.1,-0.1,0.1c-0.1,0.1,-0.1,0.1,-0.1,0.1l-0.1,0.9c0,0.1,0,0.1,0.1,0.1C28.2,56.5,28.2,56.5,28.2,56.5L28.2,56.5zM33.1,56.5c0.1,0,0.1,0.1,0.1,0.1s0.1,0,0.2,0h3.6c0.1,0,0.1,0,0.2,0c0.1,0,0.1,-0.1,0.1,-0.1c0.1,0,0.1,-0.1,0.1,-0.1c0.1,-0.1,0.1,-0.1,0.1,-0.1l0.1,-0.9c0,-0.1,0,-0.1,-0.1,-0.1c-0.1,-0.1,-0.1,-0.1,-0.1,-0.1c-0.1,0,-0.1,-0.1,-0.1,-0.1s-0.1,0,-0.2,0h-3.5c-0.1,0,-0.1,0,-0.2,0c-0.1,0,-0.1,0.1,-0.1,0.1c-0.1,0,-0.1,0.1,-0.1,0.1c-0.1,0.1,-0.1,0.1,-0.1,0.1l-0.1,0.9c0,0.1,0,0.1,0.1,0.1C33,56.5,33.1,56.5,33.1,56.5L33.1,56.5zM37.9,56.5c0.1,0,0.1,0.1,0.1,0.1s0.1,0,0.2,0H41.8c0.1,0,0.1,0,0.2,0c0.1,0,0.1,-0.1,0.1,-0.1c0.1,0,0.1,-0.1,0.1,-0.1c0.1,-0.1,0.1,-0.1,0.1,-0.1l0.1,-0.9c0,-0.1,0,-0.1,-0.1,-0.1c-0.1,-0.1,-0.1,-0.1,-0.1,-0.1c-0.1,0,-0.1,-0.1,-0.1,-0.1c-0.1,0,-0.1,0,-0.2,0h-3.5c-0.1,0,-0.1,0,-0.2,0c-0.1,0,-0.1,0.1,-0.1,0.1c-0.1,0,-0.1,0.1,-0.1,0.1c-0.1,0.1,-0.1,0.1,-0.1,0.1l-0.1,0.9c0,0.1,0,0.1,0.1,0.1C37.8,56.5,37.9,56.5,37.9,56.5L37.9,56.5zM42.7,56.5c0.1,0,0.1,0.1,0.1,0.1s0.1,0,0.2,0h3.6c0.1,0,0.1,0,0.2,0s0.1,-0.1,0.1,-0.1c0.1,0,0.1,-0.1,0.1,-0.1c0.1,-0.1,0.1,-0.1,0.1,-0.1v-0.9c0,-0.1,0,-0.1,-0.1,-0.1c-0.1,-0.1,-0.1,-0.1,-0.1,-0.1c-0.1,0,-0.1,-0.1,-0.1,-0.1s-0.1,0,-0.2,0h-3.5c-0.1,0,-0.1,0,-0.2,0s-0.1,0.1,-0.1,0.1c-0.1,0,-0.1,0.1,-0.1,0.1c-0.1,0.1,-0.1,0.1,-0.1,0.1l-0.1,0.9c0,0.1,0,0.1,0.1,0.1C42.7,56.5,42.7,56.5,42.7,56.5zM47.6,56.5c0.1,0,0.1,0.1,0.1,0.1s0.1,0,0.2,0h3.6c0.1,0,0.1,0,0.2,0s0.1,-0.1,0.1,-0.1c0.1,0,0.1,-0.1,0.1,-0.1c0.1,-0.1,0.1,-0.1,0.1,-0.1v-0.9c0,-0.1,0,-0.1,-0.1,-0.1c-0.1,-0.1,-0.1,-0.1,-0.1,-0.1c-0.1,0,-0.1,-0.1,-0.1,-0.1c-0.1,0,-0.1,0,-0.2,0h-3.5c-0.1,0,-0.1,0,-0.2,0s-0.1,0.1,-0.1,0.1s-0.1,0.1,-0.1,0.1c-0.1,0.1,-0.1,0.1,-0.1,0.1v0.9c0,0.1,0,0.1,0.1,0.1C47.5,56.5,47.6,56.5,47.6,56.5L47.6,56.5zM52.4,56.4c0.1,0.1,0.1,0.1,0.1,0.1s0.1,0.1,0.1,0.1s0.1,0,0.2,0h3.6c0.1,0,0.1,0,0.2,0s0.1,-0.1,0.1,-0.1c0.1,0,0.1,-0.1,0.1,-0.1c0.1,-0.1,0.1,-0.1,0.1,-0.1l-0.1,-0.9c0,-0.1,0,-0.1,-0.1,-0.1c-0.1,-0.1,-0.1,-0.1,-0.1,-0.1s-0.1,-0.1,-0.1,-0.1s-0.1,0,-0.2,0h-3.5c-0.1,0,-0.1,0,-0.2,0s-0.1,0.1,-0.1,0.1c-0.1,0,-0.1,0.1,-0.1,0.1c-0.1,0.1,-0.1,0.1,-0.1,0.1l0.1,0.9C52.3,56.4,52.3,56.4,52.4,56.4L52.4,56.4zM57.2,56.4c0.1,0.1,0.1,0.1,0.1,0.1c0.1,0,0.1,0.1,0.1,0.1s0.1,0,0.2,0h3.6c0.1,0,0.1,0,0.2,0s0.1,-0.1,0.1,-0.1l0.1,-0.1c0.1,-0.1,0.1,-0.1,0.1,-0.1l-0.1,-0.9c0,-0.1,0,-0.1,-0.1,-0.1c-0.1,-0.1,-0.1,-0.1,-0.1,-0.1s-0.1,-0.1,-0.1,-0.1c-0.1,0,-0.1,0,-0.2,0h-3.5c-0.1,0,-0.1,0,-0.2,0s-0.1,0.1,-0.1,0.1c-0.1,0,-0.1,0.1,-0.1,0.1c-0.1,0.1,-0.1,0.1,-0.1,0.1l0.1,0.9C57.1,56.4,57.1,56.4,57.2,56.4L57.2,56.4zM62,56.4c0.1,0.1,0.1,0.1,0.1,0.1c0.1,0,0.1,0.1,0.1,0.1c0.1,0,0.1,0,0.2,0h3.6c0.1,0,0.1,0,0.2,0s0.1,-0.1,0.1,-0.1c0.1,0,0.1,-0.1,0.1,-0.1c0.1,-0.1,0.1,-0.1,0.1,-0.1l-0.1,-0.9c0,-0.1,0,-0.1,-0.1,-0.1c-0.1,-0.1,-0.1,-0.1,-0.1,-0.1c-0.1,0,-0.1,-0.1,-0.1,-0.1s-0.1,0,-0.2,0H62.3c-0.1,0,-0.1,0,-0.2,0s-0.1,0.1,-0.1,0.1c-0.1,0,-0.1,0.1,-0.1,0.1c-0.1,0.1,-0.1,0.1,-0.1,0.1l0.1,0.9C61.9,56.4,61.9,56.4,62,56.4L62,56.4zM66.8,56.4c0.1,0.1,0.1,0.1,0.1,0.1s0.1,0.1,0.1,0.1s0.1,0,0.2,0h3.6c0.1,0,0.1,0,0.2,0s0.1,-0.1,0.1,-0.1l0.1,-0.1c0.1,-0.1,0.1,-0.1,0.1,-0.1l-0.1,-0.9c0,-0.1,-0.1,-0.1,-0.1,-0.1c-0.1,-0.1,-0.1,-0.1,-0.1,-0.1c-0.1,0,-0.1,-0.1,-0.1,-0.1s-0.1,0,-0.2,0h-3.5c-0.1,0,-0.1,0,-0.2,0s-0.1,0.1,-0.1,0.1l-0.1,0.1c-0.1,0.1,-0.1,0.1,-0.1,0.1l0.1,0.9C66.8,56.4,66.8,56.4,66.8,56.4L66.8,56.4zM71.7,56.4c0.1,0.1,0.1,0.1,0.1,0.1c0.1,0,0.1,0.1,0.1,0.1c0.1,0,0.1,0,0.2,0h3.6c0.1,0,0.1,0,0.2,0s0.1,-0.1,0.1,-0.1c0.1,0,0.1,-0.1,0.1,-0.1c0,-0.1,0.1,-0.1,0.1,-0.1l-0.2,-0.9c0,-0.1,-0.1,-0.1,-0.1,-0.1c-0.1,-0.1,-0.1,-0.1,-0.1,-0.1c-0.1,0,-0.1,-0.1,-0.1,-0.1c-0.1,0,-0.1,0,-0.2,0h-3.5c-0.1,0,-0.1,0,-0.2,0s-0.1,0.1,-0.1,0.1c-0.1,0,-0.1,0.1,-0.1,0.1c-0.1,0.1,-0.1,0.1,-0.1,0.1l0.1,0.9C71.6,56.4,71.7,56.4,71.7,56.4L71.7,56.4zM76.5,56.4c0.1,0.1,0.1,0.1,0.1,0.1c0.1,0,0.1,0.1,0.1,0.1s0.1,0,0.2,0H80.5c0.1,0,0.1,0,0.2,0s0.1,-0.1,0.1,-0.1c0.1,0,0.1,-0.1,0.1,-0.1c0,-0.1,0.1,-0.1,0.1,-0.1l-0.2,-0.9c0,-0.1,-0.1,-0.1,-0.1,-0.1c-0.1,-0.1,-0.1,-0.1,-0.1,-0.1c-0.1,0,-0.1,-0.1,-0.1,-0.1s-0.1,0,-0.2,0h-3.5c-0.1,0,-0.1,0,-0.2,0s-0.1,0.1,-0.1,0.1c-0.1,0,-0.1,0.1,-0.1,0.1c0,0.1,-0.1,0.1,-0.1,0.1l0.2,0.9C76.5,56.4,76.5,56.4,76.5,56.4L76.5,56.4zM81.3,56.4c0.1,0.1,0.1,0.1,0.1,0.1c0.1,0,0.1,0.1,0.1,0.1c0.1,0,0.1,0,0.2,0h3.6c0.1,0,0.1,0,0.2,0s0.1,-0.1,0.1,-0.1l0.1,-0.1c0,-0.1,0.1,-0.1,0,-0.1l-0.2,-0.9c0,-0.1,-0.1,-0.1,-0.1,-0.1c-0.1,-0.1,-0.1,-0.1,-0.1,-0.1c-0.1,0,-0.1,-0.1,-0.1,-0.1s-0.1,0,-0.2,0h-3.5c-0.1,0,-0.1,0,-0.2,0s-0.1,0.1,-0.1,0.1c-0.1,0,-0.1,0.1,-0.1,0.1c-0.1,0.1,-0.1,0.1,-0.1,0.1l0.2,0.9C81.3,56.4,81.3,56.4,81.3,56.4L81.3,56.4zM86.2,56.4c0.1,0.1,0.1,0.1,0.1,0.1c0.1,0,0.1,0.1,0.1,0.1s0.1,0,0.2,0h3.6c0.1,0,0.1,0,0.2,0c0.1,0,0.1,-0.1,0.1,-0.1c0.1,0,0.1,-0.1,0.1,-0.1c0,-0.1,0.1,-0.1,0,-0.1l-0.2,-0.9c0,-0.1,-0.1,-0.1,-0.1,-0.1c-0.1,-0.1,-0.1,-0.1,-0.1,-0.1c-0.1,0,-0.1,-0.1,-0.1,-0.1s-0.1,0,-0.2,0h-3.6c-0.1,0,-0.1,0,-0.2,0s-0.1,0.1,-0.1,0.1l-0.1,0.1c-0.1,0.1,-0.1,0.1,-0.1,0.1l0.2,0.9C86.1,56.4,86.2,56.4,86.2,56.4L86.2,56.4z"/>
    <polygon points="90.1,50.9 8.9,50.9 10,2.8 89.1,2.8"/>
    <path d="M60.5,71.2c0,-0.1,-0.1,-0.2,-0.2,-0.3c-0.1,-0.1,-0.2,-0.2,-0.3,-0.2c-0.2,-0.1,-0.3,-0.1,-0.5,-0.2c-0.2,-0.1,-0.4,-0.1,-0.6,-0.1H38.4c-0.2,0,-0.4,0.1,-0.6,0.1c-0.2,0.1,-0.4,0.1,-0.5,0.2c-0.2,0.1,-0.3,0.2,-0.4,0.2c-0.1,0.1,-0.2,0.2,-0.2,0.3l-0.3,3.5h24.2L60.5,71.2z"/>
    <path d="M58.9,70.5L58.9,70.5L58.9,70.5z"/>
    <path d="M60.6,74.8L60.6,74.8H36.4l-0.2,1.7c0,0.1,0.1,0.2,0.1,0.3c0.1,0.1,0.2,0.2,0.3,0.2c0.2,0.1,0.3,0.1,0.5,0.2s0.4,0.1,0.6,0.1h21.4c0.2,0,0.4,-0.1,0.6,-0.1c0.2,-0.1,0.4,-0.1,0.5,-0.2c0.2,-0.1,0.3,-0.2,0.3,-0.2c0.1,-0.1,0.1,-0.2,0.1,-0.3L60.6,74.8z"/>
</g>
<rect x="12.5" y="9.1" width="73.8" height="37.3" fill="none"/>
<path fill="none" d="M92.6,53.9c0,-0.1,-0.1,-0.1,-0.1,-0.2c-0.1,-0.1,-0.1,-0.1,-0.2,-0.1c-0.1,-0.1,-0.2,-0.1,-0.3,-0.1c-0.1,-0,-0.1,-0,-0.2,-0.1v-0.2h0.1c0.1,0,0.2,0,0.3,-0.1c0.1,0,0.2,-0.1,0.3,-0.2c0.1,-0.1,0.1,-0.2,0.2,-0.3c0.1,-0.2,0.1,-0.3,0.1,-0.4L91.3,0.9c-0.1,-0.1,-0.1,-0.2,-0.1,-0.3c0,-0.1,-0.1,-0.2,-0.2,-0.3c-0.1,-0.1,-0.2,-0.2,-0.3,-0.2c-0.1,0,-0.2,-0.1,-0.3,-0.1H8.6c-0.1,0,-0.3,0.1,-0.3,0.1c-0.1,0.1,-0.2,0.1,-0.3,0.2c-0.1,0.1,-0.1,0.2,-0.2,0.3c-0.1,0.1,-0.1,0.2,-0.1,0.3l-1.3,51.3c0,0.1,0,0.3,0.1,0.4c0,0.2,0.1,0.2,0.2,0.3c0.1,0.1,0.2,0.1,0.3,0.2c0.1,0,0.2,0.1,0.3,0.1v0.2c-0.1,0,-0.3,0,-0.4,0.1c-0.2,0.1,-0.2,0.1,-0.3,0.1c-0.1,0,-0.2,0.1,-0.2,0.1c-0.1,0.1,-0.1,0.1,-0.1,0.2L0,79.1c0,0.7,0.1,1.4,0.2,2.1c0,0.1,0,0.1,0.1,0.2c0,0,0.2,0.1,0.4,0.2c0.1,0,0.3,0.1,0.4,0.1l0,0h96.9v0c0.1,0,0.5,0,0.6,-0.1c0.1,-0.1,0.4,-0.3,0.4,-0.4c0.1,-0.7,0.1,-1.4,0.2,-2.1L92.6,53.9z"/>
<circle fill="none" cx="49.6" cy="0" r="0.1"/>
<circle fill="none" cx="70.4" cy="0" r="0.1"/>
<circle fill="none" cx="91.6" cy="14" r="0.1"/>
<circle fill="none" cx="92.3" cy="40.2" r="0.1"/>
<circle fill="none" cx="95.8" cy="66.5" r="0.1"/>
<circle fill="none" cx="74" cy="81.6" r="0.1"/>
<circle fill="none" cx="49.5" cy="81.6" r="0.1"/>
<circle fill="none" cx="25" cy="81.6" r="0.1"/>
<circle fill="none" cx="3.1" cy="66.5" r="0.1"/>
<circle fill="none" cx="6.8" cy="40.2" r="0.1"/>
<circle fill="none" cx="7.4" cy="14" r="0.1"/>
<circle fill="none" cx="28.8" cy="0" r="0.1"/>
</g></g><rect stroke="none" stroke-width="0" fill="#FFFFFF" x="0" y="0" width="0" height="0" transform="translate(92.2,40.1)"/><path stroke="#000000" fill="none" d=""/><text font-family="OpenSansCondensedLight" font-size="14pt" fill="black" transform="translate(92.2,40.1)"/><rect stroke-width="0" fill="none" width="73.8" height="37.3" transform="translate(12.5,9.1)"/><text font-family="OpenSansCondensedLight" font-size="14pt" fill="black" transform="translate(12.5,9.1)" text-anchor="middle"><tspan x="36.9" y="24.9"> </tspan></text><path stroke="#000000" fill="none" transform="translate(12.5,9.1)" d="M 0 0"/></g><g transform="translate(448,667)"><g><g>
<g stroke="#000000" stroke-dasharray="none" fill="#FFFFFF">
    <path d="M8,0h30.2c4.3,0,8,3.4,8,7.9v80.2c0,4.3,-3.5,7.9,-8,7.9H8C3.7,96,0,92.6,0,88.1V7.9C0,3.4,3.5,0,8,0z"/>
    <path d="M16.9,6.3c0.4,0,0.8,0.2,0.8,0.8c0,0.4,-0.4,0.8,-0.8,0.8c-0.6,0,-1,-0.4,-1,-0.8C15.9,6.5,16.3,6.3,16.9,6.3"/>
    <path d="M29.2,6.3c0.4,0,0.8,0.4,0.8,0.8c0,0.4,-0.4,0.8,-0.8,0.8h-8.8c-0.4,0,-0.8,-0.4,-0.8,-0.8s0.4,-0.8,0.8,-0.8L29.2,6.3"/>
    <path d="M23,85.3c2.1,0,3.7,1.6,3.7,3.6s-1.6,3.6,-3.7,3.6s-3.7,-1.6,-3.7,-3.6C19.4,86.9,21,85.3,23,85.3z"/>
    <path d="M3.1,81.8V13.3h39.8v68.5H3.1L3.1,81.8z"/>
</g>
<rect x="5.6" y="18.9" width="34.9" height="58.1" fill="none"/>
<circle fill="none" cx="23" cy="0" r="0.1"/>
<circle fill="none" cx="34.4" cy="0" r="0.1"/>
<circle fill="none" cx="46.1" cy="24.2" r="0.1"/>
<circle fill="none" cx="46.1" cy="48" r="0.1"/>
<circle fill="none" cx="46.1" cy="71.8" r="0.1"/>
<circle fill="none" cx="34.4" cy="96" r="0.1"/>
<circle fill="none" cx="23" cy="96" r="0.1"/>
<circle fill="none" cx="11.7" cy="96" r="0.1"/>
<circle fill="none" cx="0" cy="71.8" r="0.1"/>
<circle fill="none" cx="0" cy="48" r="0.1"/>
<circle fill="none" cx="0" cy="24.2" r="0.1"/>
<circle fill="none" cx="11.7" cy="0" r="0.1"/>
</g></g><rect stroke="none" stroke-width="0" fill="#FFFFFF" x="0" y="0" width="0" height="0" transform="translate(46,47.9)"/><path stroke="#000000" fill="none" d=""/><text font-family="OpenSansCondensedLight" font-size="14pt" fill="black" transform="translate(46,47.9)"/><rect stroke-width="0" fill="none" width="34.9" height="58.1" transform="translate(5.6,18.9)"/><text font-family="OpenSansCondensedLight" font-size="14pt" fill="black" transform="translate(5.6,18.9)" text-anchor="middle"><tspan x="17.4" y="35.3"> </tspan></text><path stroke="#000000" fill="none" transform="translate(5.6,18.9)" d="M 0 0"/></g><g transform="translate(331,787)"><g><g>
<rect y="0" fill="#FFFFFF" width="30.2" height="30.2" stroke="none" stroke-dasharray="none"/>
<rect x="2.1" y="2.3" fill="none" width="26" height="25.7"/>
<circle fill="none" cx="15.1" cy="0" r="0.1"/>
<circle fill="none" cx="23.5" cy="0" r="0.1"/>
<circle fill="none" cx="30.2" cy="7.3" r="0.1"/>
<circle fill="none" cx="30.2" cy="14.7" r="0.1"/>
<circle fill="none" cx="30.2" cy="23" r="0.1"/>
<circle fill="none" cx="23.5" cy="30.2" r="0.1"/>
<circle fill="none" cx="15.1" cy="30.2" r="0.1"/>
<circle fill="none" cx="7.6" cy="30.2" r="0.1"/>
<circle fill="none" cx="0" cy="23" r="0.1"/>
<circle fill="none" cx="0" cy="14.7" r="0.1"/>
<circle fill="none" cx="0" cy="7.3" r="0.1"/>
<circle fill="none" cx="7.7" cy="0" r="0.1"/>
</g></g><rect stroke="none" stroke-width="0" fill="#FFFFFF" x="0" y="0" width="0" height="0" transform="translate(30.1,14.6)"/><path stroke="#000000" fill="none" d=""/><text font-family="OpenSansCondensedLight" font-size="14pt" fill="black" transform="translate(30.1,14.6)"/><rect stroke-width="0" fill="none" width="26" height="25.7" transform="translate(2.1,2.3)"/><text font-family="OpenSansCondensedLight" font-size="14pt" fill="black" text-decoration="none" transform="translate(2.1,2.3)" text-anchor="middle"><tspan x="13" y="19.2">122</tspan></text><path stroke="#000000" fill="none" transform="translate(2.1,2.3)"/></g><g><path stroke="black" stroke-dasharray="none" d="M 331 794 C 294.5 794 294.5 737 258 737" fill="none"/><path fill="black" stroke="black" d="" transform="translate(331,794) scale(1,1) rotate(-142)"/><path fill="black" stroke="black" d="" transform="translate(258,737) scale(1,1) rotate(38)"/><g><g label-idx="0" cursor="move" transform="translate(294.5, 765.5)"><rect fill="white" rx="3" ry="3" x="0" y="0" width="0" height="0"/><text text-anchor="middle" font-size="14pt" font-family="OpenSansCondensedLight" y="0.8em" display="none" xml:space="preserve" transform="translate(0,0)"/></g></g></g><g><path stroke="black" stroke-dasharray="none" d="M 361 794 C 404.5 794 404.5 739 448 739" fill="none"/><path fill="black" stroke="black" d="" transform="translate(361,794) scale(1,1) rotate(-32.3)"/><path fill="black" stroke="black" d="" transform="translate(448,739) scale(1,1) rotate(-212.3)"/><g><g label-idx="0" cursor="move" transform="translate(404.5, 766.5)"><rect fill="white" rx="3" ry="3" x="0" y="0" width="0" height="0"/><text text-anchor="middle" font-size="14pt" font-family="OpenSansCondensedLight" y="0.8em" display="none" xml:space="preserve" transform="translate(0,0)"/></g></g></g><g><path stroke="black" stroke-dasharray="none" d="M 448 694 251 694" fill="none"/><path fill="black" stroke="black" d="" transform="translate(448,694) scale(1,1) rotate(-180)"/><path fill="black" stroke="black" d="" transform="translate(251,694) scale(1,1) rotate(0)"/><g><g label-idx="0" cursor="move" transform="translate(349.5, 694)"><rect fill="white" rx="3" ry="3" x="0" y="0" width="0" height="0"/><text text-anchor="middle" font-size="14pt" font-family="OpenSansCondensedLight" y="0.8em" display="none" xml:space="preserve" transform="translate(0,0)"/></g></g></g><g><path stroke="black" stroke-dasharray="none" d="M 334 538 334 694" fill="none"/><path fill="black" stroke="black" d="M 8 0 L 0 4 L 8 8 z" transform="translate(338,530) scale(1,1) rotate(-270)"/><path fill="black" stroke="black" d="" transform="translate(334,694) scale(1,1) rotate(-90)"/><g><g label-idx="0" cursor="move" transform="translate(334, 616)"><rect fill="white" rx="3" ry="3" x="-69.5" y="-13.1" width="138.9" height="22"/><text text-anchor="start" font-size="14pt" font-family="OpenSansCondensedLight" y="0.8em" display="null" xml:space="preserve" transform="translate(0,-11)"><tspan x="-60.1" y="0.8em">FILE/UPLOAD</tspan></text></g></g></g><g><path stroke="black" stroke-dasharray="none" d="M 347 345 347 315" fill="none"/><path fill="black" stroke="black" d="" transform="translate(347,345) scale(1,1) rotate(-90)"/><path fill="black" stroke="black" d="M 8 0 L 0 4 L 8 8 z" transform="translate(351,307) scale(1,1) rotate(-270)"/><g><g label-idx="0" cursor="move" transform="translate(347, 330)"><rect fill="white" rx="3" ry="3" x="-68.1" y="-13.1" width="136.3" height="22"/><text text-anchor="start" font-size="14pt" font-family="OpenSansCondensedLight" y="0.8em" display="null" xml:space="preserve" transform="translate(0,-11)"><tspan x="-58.8" y="0.8em">file/scan upload</tspan></text></g></g></g></g><defs/></svg>